<svg width="134" height="48" viewBox="0 0 134 48" fill="none" xmlns="http://www.w3.org/2000/svg">
<g clip-path="url(#clip0_2446_9229)">
<path d="M27.5539 8.52344C27.4827 8.56497 27.4162 8.5991 27.3446 8.64115C26.0592 9.3942 24.7616 10.1959 23.4246 11.0453C22.7347 11.4836 21.3371 12.3841 21.2828 12.4181C21.0349 12.5734 20.793 12.7433 20.5479 12.9045C21.9376 14.9338 23.8262 17.5074 25.432 19.674C25.9461 15.8497 26.6566 12.0863 27.5421 8.5705C27.5455 8.55757 27.5504 8.53811 27.5539 8.52344Z" fill="url(#paint0_linear_2446_9229)"/>
<path d="M29.1044 7.56549C29.2929 7.46132 29.4511 7.38589 29.6339 7.28711C31.6224 9.26773 33.642 11.2729 35.7075 13.3271C35.6449 13.3989 35.597 13.4502 35.5336 13.5231C35.3063 13.7852 30.5067 19.3093 27.6622 22.5869C27.6306 22.5869 27.6185 22.5871 27.587 22.5869C27.4078 22.3483 26.8084 21.5374 26.4648 21.077C26.9772 16.8586 27.7476 12.6931 28.7211 8.82846C28.8044 8.49787 29.0134 7.64004 29.0134 7.64004C29.017 7.62611 29.0181 7.62636 29.0215 7.61255C29.0481 7.59774 29.0777 7.5803 29.1044 7.56549Z" fill="url(#paint1_linear_2446_9229)"/>
<path d="M14.0361 17.9708C15.8584 16.32 17.6286 14.8713 19.4499 13.5938C20.9672 15.8458 22.7481 18.2734 25.1599 21.477C25.1159 21.8545 25.0772 22.2326 25.0374 22.6104C20.7604 22.5945 18.7245 22.5839 14.0796 22.5714C14.1502 20.9402 14.1302 19.4172 14.0361 17.9708Z" fill="url(#paint2_linear_2446_9229)"/>
<path d="M12.4121 10.1233C13.7508 8.78115 14.0453 8.4847 15.3917 7.13477C16.0147 8.21637 16.6702 9.32145 17.3911 10.4607C17.8822 11.2368 18.3007 11.8711 18.7504 12.5511C17.117 13.6934 15.5256 14.9603 13.9098 16.3829C13.7903 15.3372 13.6326 14.3172 13.4079 13.3237C13.1659 12.2534 12.8608 11.2861 12.4121 10.1233Z" fill="url(#paint3_linear_2446_9229)"/>
<path d="M7.90137 14.6491C9.48742 13.0641 9.80938 12.7355 11.434 11.1074C11.7518 11.9829 11.9876 12.7606 12.1769 13.598C12.4557 14.8303 12.6189 16.1206 12.7301 17.4534C11.3479 18.7273 9.94391 20.0834 8.4427 21.646C8.60835 20.311 8.6851 19.1694 8.62049 17.9827C8.61834 17.9431 8.58988 17.434 8.58104 17.3082C8.55714 16.97 8.5269 16.658 8.48226 16.3591C8.37175 15.6203 8.19169 15.0531 7.90137 14.6491Z" fill="url(#paint4_linear_2446_9229)"/>
<path d="M9.31543 22.5573C10.5455 21.2757 11.7118 20.1298 12.8521 19.0508C12.8915 20.1608 12.871 21.3416 12.8166 22.569C11.3718 22.5653 10.611 22.5596 9.31543 22.5573Z" fill="url(#paint5_linear_2446_9229)"/>
<path d="M0.0956025 22.5719C0.281281 22.4557 3.4791 19.2776 7.18471 15.5781C7.28699 15.8052 7.38083 16.1108 7.44545 16.543C7.4849 16.8063 7.51462 17.0857 7.53636 17.3941C7.54471 17.5117 7.56962 18.0099 7.57189 18.053C7.64866 19.4608 7.55774 20.7152 7.27563 22.5476C3.12323 22.5425 0.272118 22.5478 0.0956025 22.5719C0.0913998 22.5744 0.0887403 22.5756 0.0876529 22.575C0.0854635 22.5741 0.0881478 22.5729 0.0956025 22.5719Z" fill="url(#paint6_linear_2446_9229)"/>
<path d="M36.4962 14.3755C36.5366 14.329 36.5666 14.2962 36.6067 14.25C41.124 18.7411 45.0982 22.6824 45.1462 22.6824C45.1796 22.6824 36.3575 22.6531 29.332 22.6276C32.2317 19.2879 36.2915 14.6113 36.4962 14.3755Z" fill="url(#paint7_linear_2446_9229)"/>
<path d="M0.113815 25.4493C0.142684 25.435 1.48044 26.75 3.18018 28.434C3.81055 27.7547 4.38969 27.1211 5.08099 26.3868C5.31102 26.1423 5.7398 25.6911 5.94238 25.4768C2.80502 25.477 0.0693681 25.4715 0.113815 25.4493Z" fill="url(#paint8_linear_2446_9229)"/>
<path d="M6.00553 27.247C6.19066 27.0505 6.53675 26.6835 6.6971 26.5137C6.62968 26.8726 6.59428 27.0691 6.55483 27.2825C6.27524 28.7946 6.11048 29.839 6.00162 30.8985C5.99035 31.0082 5.99161 31.1103 5.98188 31.2161C5.2424 30.4791 4.73079 29.975 4.07715 29.3257C4.71599 28.637 5.30336 27.9932 6.00553 27.247Z" fill="url(#paint9_linear_2446_9229)"/>
<path d="M8.16489 25.4786C9.79484 25.4762 10.9197 25.4678 12.8356 25.4629C12.8135 25.7609 12.807 26.0313 12.7803 26.3375C12.6323 28.0363 12.4612 29.4867 12.0888 32.4049C11.8634 34.1707 11.7905 34.8823 11.6975 35.7425L11.6958 35.7429C11.3817 35.8287 11.0712 35.9134 10.7532 36.0013C9.49338 34.7373 8.70042 33.9377 7.16113 32.4009C7.18351 31.9411 7.20741 31.5005 7.25596 31.0281C7.36079 30.0092 7.51936 28.9922 7.79338 27.51C7.83561 27.282 7.869 27.1047 7.94753 26.6866C8.03389 26.2274 8.09294 25.881 8.16489 25.4786Z" fill="url(#paint10_linear_2446_9229)"/>
<path d="M14.1063 25.4572C18.6995 25.4444 21.2275 25.4327 25.0008 25.418C24.9518 25.974 24.9173 26.5298 24.8782 27.0848L24.7922 27.1857C24.077 28.0245 22.2199 30.2023 19.8914 32.9759C19.6601 33.2512 19.4239 33.5437 19.1919 33.8231C17.2032 34.2862 15.1358 34.8187 13.0156 35.3839C13.113 34.5529 13.1564 34.0578 13.3476 32.56C13.722 29.6259 13.8929 28.1661 14.043 26.4456C14.0731 26.1 14.0817 25.7932 14.1063 25.4572Z" fill="url(#paint11_linear_2446_9229)"/>
<path d="M21.1943 33.3882C22.8542 31.4124 23.7251 30.3946 24.7508 29.1875C24.6937 30.3663 24.6622 31.5332 24.6521 32.694C23.5045 32.9182 22.364 33.1309 21.1943 33.3882Z" fill="url(#paint12_linear_2446_9229)"/>
<path d="M12.8553 36.7299C14.5639 36.2703 16.2293 35.8438 17.846 35.4512C16.7186 36.8328 15.5873 38.2424 14.4399 39.695C13.6424 38.8956 13.469 38.7232 12.709 37.9613C12.7414 37.6294 12.8213 37.0483 12.8553 36.7299Z" fill="url(#paint13_linear_2446_9229)"/>
<path d="M19.8957 34.9533C21.511 34.5811 23.0868 34.256 24.6496 33.9492C24.651 34.1935 24.6417 34.4433 24.6455 34.6867C24.6703 36.2616 24.7575 37.7822 24.8748 39.2753C21.9584 39.9283 19.1067 40.7023 16.3551 41.6169C15.8793 41.1398 15.8028 41.0616 15.3396 40.5971C16.8794 38.6466 18.3935 36.7689 19.8957 34.9533Z" fill="url(#paint14_linear_2446_9229)"/>
<path d="M17.3398 42.6058C19.8136 41.8049 22.3748 41.1268 24.9861 40.543C25.1363 42.0729 25.3258 43.5662 25.579 44.9983C24.7045 45.8686 22.643 47.9203 22.643 47.9203C22.643 47.9203 19.7617 45.033 17.3398 42.6058Z" fill="url(#paint15_linear_2446_9229)"/>
<path d="M26.2354 40.2751C27.8931 39.9284 29.5632 39.6082 31.2579 39.3457C29.181 41.4128 28.389 42.2002 26.6898 43.8912C26.503 42.7196 26.3542 41.5137 26.2354 40.2751Z" fill="url(#paint16_linear_2446_9229)"/>
<path d="M25.9137 33.7019C28.2182 33.271 30.4906 32.8996 32.7736 32.5918C33.1083 33.0524 33.5837 33.687 33.8286 34.0351C34.171 34.522 34.5227 35.0361 34.9549 35.6667C33.8687 36.7468 33.8256 36.7929 32.7696 37.8436C30.52 38.152 28.3066 38.5577 26.1192 39.0164C26.0112 37.6005 25.9333 36.1593 25.9096 34.6666C25.9046 34.3486 25.9147 34.0222 25.9137 33.7019Z" fill="url(#paint17_linear_2446_9229)"/>
<path d="M26.2656 25.4651C26.2673 25.448 26.2681 25.431 26.2697 25.4141C26.2851 25.414 26.2949 25.4141 26.3106 25.4141C26.3012 25.4245 26.2776 25.4518 26.2656 25.4651Z" fill="url(#paint18_linear_2446_9229)"/>
<path d="M26.5077 27.1091C26.5126 27.1034 27.4494 26.0245 27.6894 25.748C28.0227 26.1896 30.1067 28.9711 31.9292 31.4469C29.9344 31.7261 27.9333 32.0676 25.915 32.4432C25.934 30.8394 25.9965 29.2176 26.1047 27.5836C26.2085 27.4627 26.406 27.2274 26.5077 27.1091Z" fill="url(#paint19_linear_2446_9229)"/>
<path d="M34.2068 32.4042C35.7031 32.2195 37.2128 32.0551 38.7432 31.918C37.4433 33.2089 37.2592 33.3811 35.8665 34.7654C35.4986 34.2296 35.1675 33.7477 34.8628 33.3143C34.6516 33.0139 34.4174 32.6993 34.2068 32.4042Z" fill="url(#paint20_linear_2446_9229)"/>
<path d="M29.0088 25.4027C35.6373 25.3773 45.4225 25.3438 45.388 25.3438C45.3633 25.3438 42.2389 28.4557 40.1245 30.5522C37.8297 30.7344 35.5752 30.9494 33.3593 31.2348C32.2029 29.6442 30.9412 27.9481 29.0088 25.4027Z" fill="url(#paint21_linear_2446_9229)"/>
<path d="M16.3496 6.22968C18.9627 3.60948 22.4389 0.123047 22.4389 0.123047C22.4389 0.123047 25.7382 3.40841 28.2163 5.87675C28.1444 6.14696 28.0594 6.46423 27.9672 6.83761C27.5504 7.07383 27.1376 7.30852 26.7028 7.56317C25.4029 8.32473 24.0883 9.13011 22.7392 9.98706C22.0422 10.4299 20.6503 11.3277 20.6055 11.3558C20.345 11.5189 20.0922 11.6966 19.8351 11.8656C19.3924 11.1974 18.9823 10.5738 18.4993 9.81048C17.7227 8.5834 17.0068 7.38318 16.3496 6.22968Z" fill="url(#paint22_linear_2446_9229)"/>
<path d="M60.2648 29.8917C56.2033 29.8917 53.3438 26.9294 53.3438 22.342C53.3438 17.9808 56.1205 14.8745 60.6171 14.8745C64.3884 14.8745 66.9786 17.0962 67.6003 20.7374H65.0515C64.5956 18.4746 62.9172 17.0962 60.6171 17.0962C57.716 17.0962 55.8925 19.1123 55.8925 22.342C55.8925 25.6128 57.7367 27.6494 60.5134 27.6494C62.7721 27.6494 64.2433 26.1888 64.2433 24.1317H59.8711V22.054H64.8235C66.6885 22.054 67.7039 22.9797 67.7039 24.7283V29.5831H65.5074V25.1808H65.4659C65.1758 28.0608 63.2694 29.8917 60.2648 29.8917ZM75.1447 29.8917C71.7878 29.8917 69.4877 27.5054 69.4877 24.1728C69.4877 20.5728 71.8707 18.3511 74.9375 18.3511C78.0457 18.3511 80.1179 20.5111 80.1801 24.0494V24.6254H71.9328C72.0986 26.5386 73.3005 27.8346 75.1654 27.8346C76.4294 27.8346 77.3826 27.2174 77.7556 26.1271H80.1386C79.5791 28.4723 77.7349 29.8917 75.1447 29.8917ZM72.0365 22.918H77.652C77.3412 21.3546 76.3673 20.4083 74.9375 20.4083C73.487 20.4083 72.4094 21.3546 72.0365 22.918ZM84.5332 29.5831H82.088V18.6802H84.0566L84.2431 20.2026C84.9269 19.1328 86.2738 18.3511 87.9108 18.3511C89.4857 18.3511 90.6875 19.1328 91.2677 20.3877C91.8894 19.2357 93.2985 18.3511 95.0391 18.3511C97.3392 18.3511 98.8104 19.9763 98.8104 22.3214V29.5831H96.3445V22.4448C96.3445 21.2311 95.5986 20.4494 94.4174 20.4494C92.739 20.4494 91.6822 21.5397 91.6614 22.9797V29.5831H89.2163V22.4448C89.2163 21.2311 88.4703 20.4494 87.2892 20.4494C85.6107 20.4494 84.5539 21.5397 84.5332 22.9797V29.5831ZM103.637 29.5831H101.192V14.1545H103.637V29.5831ZM107.392 17.2197C106.501 17.2197 105.817 16.5202 105.817 15.6357C105.817 14.7511 106.501 14.0723 107.392 14.0723C108.303 14.0723 108.966 14.7511 108.966 15.6357C108.966 16.5202 108.303 17.2197 107.392 17.2197ZM108.614 29.5831H106.169V18.6802H108.614V29.5831ZM113.552 29.5831H111.106V18.6802H113.075L113.282 20.2848C113.966 19.1534 115.354 18.3511 116.991 18.3511C119.333 18.3511 120.866 19.9146 120.866 22.3626V29.5831H118.421V22.486C118.421 21.2723 117.613 20.47 116.245 20.47C114.65 20.47 113.572 21.5603 113.552 22.9797V29.5831ZM128.284 29.8917C124.928 29.8917 122.627 27.5054 122.627 24.1728C122.627 20.5728 125.01 18.3511 128.077 18.3511C131.186 18.3511 133.258 20.5111 133.32 24.0494V24.6254H125.073C125.238 26.5386 126.44 27.8346 128.305 27.8346C129.569 27.8346 130.522 27.2174 130.895 26.1271H133.278C132.719 28.4723 130.875 29.8917 128.284 29.8917ZM125.176 22.918H130.792C130.481 21.3546 129.507 20.4083 128.077 20.4083C126.627 20.4083 125.549 21.3546 125.176 22.918Z" fill="#35343D"/>
</g>
<defs>
<linearGradient id="paint0_linear_2446_9229" x1="25.7111" y1="10.1862" x2="25.2584" y2="15.4629" gradientUnits="userSpaceOnUse">
<stop stop-color="#21B639"/>
<stop offset="1" stop-color="#2DE74A"/>
</linearGradient>
<linearGradient id="paint1_linear_2446_9229" x1="32.5012" y1="9.92517" x2="31.5591" y2="19.061" gradientUnits="userSpaceOnUse">
<stop stop-color="#146FC3"/>
<stop offset="1" stop-color="#00BCF8"/>
</linearGradient>
<linearGradient id="paint2_linear_2446_9229" x1="19.2719" y1="13.5731" x2="19.0198" y2="22.5946" gradientUnits="userSpaceOnUse">
<stop stop-color="#1FD53C"/>
<stop offset="1" stop-color="#3EFF5D"/>
</linearGradient>
<linearGradient id="paint3_linear_2446_9229" x1="15.571" y1="7.15753" x2="18.9818" y2="9.14075" gradientUnits="userSpaceOnUse">
<stop stop-color="#1FB237"/>
<stop offset="1" stop-color="#2CD247"/>
</linearGradient>
<linearGradient id="paint4_linear_2446_9229" x1="11.1443" y1="19.0773" x2="9.46105" y2="13.4037" gradientUnits="userSpaceOnUse">
<stop stop-color="#FF4154"/>
<stop offset="1" stop-color="#CB313D"/>
</linearGradient>
<linearGradient id="paint5_linear_2446_9229" x1="12.325" y1="22.596" x2="11.1082" y2="20.864" gradientUnits="userSpaceOnUse">
<stop stop-color="#FF4154"/>
<stop offset="1" stop-color="#D83846"/>
</linearGradient>
<linearGradient id="paint6_linear_2446_9229" x1="7.30436" y1="22.3011" x2="4.04734" y2="19.0532" gradientUnits="userSpaceOnUse">
<stop stop-color="#FF4154"/>
<stop offset="1" stop-color="#CB313D"/>
</linearGradient>
<linearGradient id="paint7_linear_2446_9229" x1="41.8813" y1="19.3715" x2="33.5609" y2="22.2092" gradientUnits="userSpaceOnUse">
<stop stop-color="#146FC3"/>
<stop offset="1" stop-color="#00BCF8"/>
</linearGradient>
<linearGradient id="paint8_linear_2446_9229" x1="1.17142" y1="26.8282" x2="4.38314" y2="25.9368" gradientUnits="userSpaceOnUse">
<stop stop-color="#146FC3"/>
<stop offset="1" stop-color="#00BCF8"/>
</linearGradient>
<linearGradient id="paint9_linear_2446_9229" x1="4.80953" y1="30.4663" x2="5.68935" y2="27.3621" gradientUnits="userSpaceOnUse">
<stop stop-color="#146FC3"/>
<stop offset="1" stop-color="#00BCF8"/>
</linearGradient>
<linearGradient id="paint10_linear_2446_9229" x1="8.74737" y1="34.3208" x2="10.4966" y2="26.6677" gradientUnits="userSpaceOnUse">
<stop stop-color="#146FC3"/>
<stop offset="1" stop-color="#00BCF8"/>
</linearGradient>
<linearGradient id="paint11_linear_2446_9229" x1="18.6568" y1="25.3952" x2="22.7126" y2="30.9579" gradientUnits="userSpaceOnUse">
<stop stop-color="#3EFF5D"/>
<stop offset="1" stop-color="#1FD53C"/>
</linearGradient>
<linearGradient id="paint12_linear_2446_9229" x1="23.4719" y1="32.5487" x2="21.9321" y2="31.8469" gradientUnits="userSpaceOnUse">
<stop stop-color="#1FD03B"/>
<stop offset="1" stop-color="#1FDC3D"/>
</linearGradient>
<linearGradient id="paint13_linear_2446_9229" x1="15.9989" y1="38.8468" x2="14.113" y2="37.6182" gradientUnits="userSpaceOnUse">
<stop stop-color="#1FD03B"/>
<stop offset="1" stop-color="#1FDC3D"/>
</linearGradient>
<linearGradient id="paint14_linear_2446_9229" x1="21.446" y1="40.0844" x2="18.0025" y2="37.7796" gradientUnits="userSpaceOnUse">
<stop stop-color="#1FB237"/>
<stop offset="1" stop-color="#2CD247"/>
</linearGradient>
<linearGradient id="paint15_linear_2446_9229" x1="22.6164" y1="46.446" x2="21.246" y2="41.5835" gradientUnits="userSpaceOnUse">
<stop stop-color="#1FA434"/>
<stop offset="1" stop-color="#1FB637"/>
</linearGradient>
<linearGradient id="paint16_linear_2446_9229" x1="28.1473" y1="39.7385" x2="28.2389" y2="43.3335" gradientUnits="userSpaceOnUse">
<stop stop-color="#CE303D"/>
<stop offset="1" stop-color="#C2323D"/>
</linearGradient>
<linearGradient id="paint17_linear_2446_9229" x1="29.3519" y1="33.147" x2="30.369" y2="39.0075" gradientUnits="userSpaceOnUse">
<stop stop-color="#E03A49"/>
<stop offset="1" stop-color="#C82D39"/>
</linearGradient>
<linearGradient id="paint18_linear_2446_9229" x1="27.4177" y1="28.1636" x2="28.8729" y2="32.4637" gradientUnits="userSpaceOnUse">
<stop stop-color="#FF4154"/>
<stop offset="1" stop-color="#D83846"/>
</linearGradient>
<linearGradient id="paint19_linear_2446_9229" x1="27.3811" y1="28.1643" x2="28.8708" y2="32.4376" gradientUnits="userSpaceOnUse">
<stop stop-color="#FF4154"/>
<stop offset="1" stop-color="#D83846"/>
</linearGradient>
<linearGradient id="paint20_linear_2446_9229" x1="35.9336" y1="32.164" x2="36.3346" y2="34.7783" gradientUnits="userSpaceOnUse">
<stop stop-color="#E03A49"/>
<stop offset="1" stop-color="#C82D39"/>
</linearGradient>
<linearGradient id="paint21_linear_2446_9229" x1="29.9726" y1="25.3304" x2="37.87" y2="31.3131" gradientUnits="userSpaceOnUse">
<stop stop-color="#FF4154"/>
<stop offset="1" stop-color="#D83846"/>
</linearGradient>
<linearGradient id="paint22_linear_2446_9229" x1="22.2648" y1="0.123047" x2="20.8096" y2="10.9712" gradientUnits="userSpaceOnUse">
<stop stop-color="#1FA434"/>
<stop offset="1" stop-color="#28D243"/>
</linearGradient>
<clipPath id="clip0_2446_9229">
<rect width="134" height="48" fill="white"/>
</clipPath>
</defs>
</svg>
