<svg width="255" height="90" viewBox="0 0 255 90" fill="none" xmlns="http://www.w3.org/2000/svg">
<path d="M52.4338 15.9814C52.2982 16.0593 52.1717 16.1233 52.0353 16.2021C49.5894 17.6141 47.1201 19.1173 44.5757 20.71C43.2628 21.5318 40.6032 23.2202 40.4999 23.284C40.0282 23.5751 39.5678 23.8937 39.1013 24.1959C41.746 28.0008 45.34 32.8263 48.3959 36.8887C49.3742 29.7182 50.7262 22.6618 52.4113 16.0697C52.4177 16.0454 52.427 16.009 52.4338 15.9814Z" fill="url(#paint0_linear_152_5659)"/>
<path d="M55.386 14.187C55.7447 13.9917 56.0459 13.8503 56.3937 13.665C60.1777 17.3787 64.0211 21.1385 67.9517 24.99C67.8326 25.1246 67.7413 25.2208 67.6208 25.3575C67.1882 25.8489 58.0547 36.2067 52.6415 42.3522C52.5814 42.3522 52.5585 42.3526 52.4984 42.3522C52.1574 41.9048 51.0169 40.3843 50.363 39.521C51.338 31.6115 52.8041 23.8014 54.6567 16.5551C54.8152 15.9352 55.2129 14.3268 55.2129 14.3268C55.2197 14.3007 55.2219 14.3011 55.2283 14.2752C55.279 14.2475 55.3353 14.2148 55.386 14.187Z" fill="url(#paint1_linear_152_5659)"/>
<path d="M26.7104 33.6971C30.1782 30.6019 33.5469 27.8856 37.0127 25.4902C39.9003 29.7129 43.2892 34.2645 47.8789 40.2713C47.7951 40.9792 47.7215 41.6881 47.6456 42.3964C39.5067 42.3666 35.6324 42.3468 26.7932 42.3233C26.9275 39.2648 26.8895 36.4092 26.7104 33.6971Z" fill="url(#paint2_linear_152_5659)"/>
<path d="M23.6206 18.9814C26.1682 16.4649 26.7286 15.9091 29.2907 13.3779C30.4763 15.4059 31.7237 17.478 33.0956 19.614C34.0302 21.0692 34.8264 22.2585 35.6824 23.5335C32.5739 25.6755 29.5455 28.0508 26.4707 30.7182C26.2433 28.7575 25.9432 26.845 25.5156 24.9822C25.055 22.9753 24.4744 21.1617 23.6206 18.9814Z" fill="url(#paint3_linear_152_5659)"/>
<path d="M15.0366 27.4687C18.0549 24.4968 18.6675 23.8807 21.7592 20.8281C22.3639 22.4697 22.8127 23.9278 23.1729 25.4979C23.7035 27.8085 24.0139 30.2279 24.2257 32.7267C21.5953 35.1153 18.9235 37.658 16.0668 40.588C16.382 38.0849 16.5281 35.9443 16.4051 33.7194C16.401 33.645 16.3468 32.6905 16.33 32.4545C16.2845 31.8205 16.227 31.2355 16.1421 30.675C15.9318 29.2899 15.5891 28.2262 15.0366 27.4687Z" fill="url(#paint4_linear_152_5659)"/>
<path d="M17.7266 42.2934C20.0674 39.8906 22.2868 37.7419 24.4568 35.7188C24.5317 37.8 24.4927 40.014 24.3892 42.3154C21.6397 42.3084 20.1921 42.2978 17.7266 42.2934Z" fill="url(#paint5_linear_152_5659)"/>
<path d="M0.181573 42.3243C0.534916 42.1064 6.62033 36.1475 13.672 29.2109C13.8667 29.6366 14.0453 30.2096 14.1682 31.0201C14.2433 31.5138 14.2998 32.0376 14.3412 32.6158C14.3571 32.8363 14.4045 33.7706 14.4088 33.8513C14.5549 36.4909 14.3819 38.8429 13.8451 42.2787C5.94309 42.2692 0.517479 42.2791 0.181573 42.3243C0.173575 42.329 0.168514 42.3312 0.166445 42.3301C0.162279 42.3283 0.167387 42.3261 0.181573 42.3243Z" fill="url(#paint6_linear_152_5659)"/>
<path d="M69.4526 26.9531C69.5296 26.8658 69.5867 26.8044 69.6629 26.7178C78.2593 35.1386 85.8222 42.5286 85.9135 42.5286C85.9769 42.5286 69.1886 42.4735 55.8193 42.4257C61.3373 36.1639 69.0632 27.3953 69.4526 26.9531Z" fill="url(#paint7_linear_152_5659)"/>
<path d="M0.216837 47.719C0.271774 47.6922 2.81751 50.1578 6.05208 53.3151C7.25167 52.0415 8.35377 50.8535 9.66929 49.4767C10.107 49.0183 10.923 48.1723 11.3085 47.7704C5.33816 47.7708 0.132254 47.7605 0.216837 47.719Z" fill="url(#paint8_linear_152_5659)"/>
<path d="M11.4289 51.0869C11.7813 50.7184 12.4399 50.0304 12.745 49.7119C12.6167 50.3849 12.5493 50.7533 12.4743 51.1534C11.9422 53.9886 11.6287 55.9469 11.4215 57.9335C11.4001 58.1392 11.4025 58.3306 11.384 58.529C9.97673 57.147 9.00314 56.2018 7.75928 54.9844C8.97498 53.6932 10.0927 52.4861 11.4289 51.0869Z" fill="url(#paint9_linear_152_5659)"/>
<path d="M15.5381 47.7706C18.6398 47.7662 20.7805 47.7504 24.4263 47.7412C24.3842 48.2999 24.372 48.8069 24.3212 49.381C24.0394 52.5663 23.7138 55.2858 23.0052 60.7574C22.5764 64.0683 22.4375 65.4025 22.2606 67.0155L22.2574 67.0163C21.6596 67.1772 21.0686 67.3359 20.4636 67.5008C18.0662 65.1307 16.5572 63.6315 13.6279 60.7501C13.6705 59.8879 13.716 59.0617 13.8084 58.1761C14.0079 56.2655 14.3096 54.3586 14.8311 51.5796C14.9115 51.152 14.975 50.8196 15.1244 50.0357C15.2888 49.1746 15.4011 48.5251 15.5381 47.7706Z" fill="url(#paint10_linear_152_5659)"/>
<path d="M26.8445 47.7336C35.5853 47.7097 40.3961 47.6877 47.5766 47.6602C47.4835 48.7027 47.4178 49.7448 47.3434 50.7855L47.1797 50.9747C45.8187 52.5473 42.2847 56.6308 37.8536 61.8313C37.4134 62.3474 36.9639 62.8959 36.5223 63.4197C32.7379 64.2881 28.8038 65.2866 24.769 66.3464C24.9543 64.7881 25.0369 63.8598 25.4007 61.0514C26.1132 55.55 26.4386 52.8129 26.7242 49.5869C26.7815 48.9389 26.7979 48.3636 26.8445 47.7336Z" fill="url(#paint11_linear_152_5659)"/>
<path d="M40.3323 62.6038C43.491 58.8991 45.1484 56.9908 47.1001 54.7275C46.9916 56.9379 46.9315 59.1258 46.9123 61.3023C44.7285 61.7226 42.5582 62.1215 40.3323 62.6038Z" fill="url(#paint12_linear_152_5659)"/>
<path d="M24.464 68.8694C27.7154 68.0076 30.8846 67.2078 33.9613 66.4717C31.8158 69.0622 29.6629 71.7053 27.4794 74.4288C25.9619 72.93 25.6318 72.6067 24.1855 71.1781C24.2472 70.5558 24.3992 69.4663 24.464 68.8694Z" fill="url(#paint13_linear_152_5659)"/>
<path d="M37.8615 65.5369C40.9354 64.839 43.9342 64.2296 46.9082 63.6543C46.9108 64.1124 46.8932 64.5807 46.9003 65.037C46.9476 67.9901 47.1136 70.8411 47.3367 73.6406C41.7868 74.865 36.3601 76.3164 31.1239 78.0312C30.2184 77.1367 30.0728 76.9901 29.1914 76.1191C32.1216 72.4618 35.0029 68.9412 37.8615 65.5369Z" fill="url(#paint14_linear_152_5659)"/>
<path d="M32.998 79.8854C37.7056 78.3837 42.5795 77.1123 47.5488 76.0176C47.8346 78.8862 48.1951 81.6861 48.677 84.3714C47.0129 86.0032 43.0899 89.85 43.0899 89.85C43.0899 89.85 37.6068 84.4364 32.998 79.8854Z" fill="url(#paint15_linear_152_5659)"/>
<path d="M49.9253 75.5171C53.0799 74.8669 56.2582 74.2667 59.4831 73.7744C55.5308 77.6503 54.0237 79.1267 50.7902 82.2972C50.4345 80.1005 50.1514 77.8395 49.9253 75.5171Z" fill="url(#paint16_linear_152_5659)"/>
<path d="M49.314 63.1917C53.6993 62.3839 58.0238 61.6875 62.3682 61.1104C63.0051 61.974 63.9098 63.1638 64.3759 63.8166C65.0274 64.7295 65.6967 65.6934 66.5191 66.8759C64.4521 68.901 64.3702 68.9874 62.3606 70.9575C58.0797 71.5357 53.8675 72.2964 49.7049 73.1564C49.4995 70.5016 49.3511 67.7994 49.3061 65.0006C49.2967 64.4044 49.3158 63.7924 49.314 63.1917Z" fill="url(#paint17_linear_152_5659)"/>
<path d="M49.9824 47.749C49.9855 47.717 49.9871 47.6851 49.9901 47.6535C50.0195 47.6531 50.038 47.6535 50.0678 47.6535C50.05 47.673 50.0052 47.724 49.9824 47.749Z" fill="url(#paint18_linear_152_5659)"/>
<path d="M50.4439 50.8303C50.4533 50.8196 52.2361 48.7966 52.6928 48.2783C53.3271 49.1063 57.2929 54.3215 60.7611 58.9637C56.965 59.4872 53.1569 60.1275 49.3162 60.8317C49.3522 57.8246 49.4713 54.7837 49.6771 51.72C49.8746 51.4933 50.2505 51.0522 50.4439 50.8303Z" fill="url(#paint19_linear_152_5659)"/>
<path d="M65.0952 60.7575C67.9427 60.411 70.8156 60.1028 73.728 59.8457C71.2543 62.2662 70.9039 62.589 68.2536 65.1847C67.5536 64.18 66.9234 63.2764 66.3436 62.4638C65.9417 61.9006 65.4959 61.3107 65.0952 60.7575Z" fill="url(#paint20_linear_152_5659)"/>
<path d="M55.2039 47.6311C67.8179 47.5833 86.4389 47.5205 86.3732 47.5205C86.3263 47.5205 80.3805 53.3554 76.3568 57.2864C71.9899 57.6281 67.6996 58.031 63.4829 58.5663C61.2822 55.5838 58.8813 52.4037 55.2039 47.6311Z" fill="url(#paint21_linear_152_5659)"/>
<path d="M31.1135 11.6804C36.0862 6.76753 42.7013 0.230469 42.7013 0.230469C42.7013 0.230469 48.9798 6.39053 53.6956 11.0187C53.5589 11.5253 53.397 12.1202 53.2217 12.8203C52.4285 13.2632 51.6428 13.7032 50.8155 14.1807C48.3417 15.6086 45.8402 17.1187 43.2729 18.7255C41.9464 19.5557 39.2977 21.2392 39.2124 21.2919C38.7167 21.5976 38.2356 21.9308 37.7463 22.2478C36.9039 20.995 36.1235 19.8256 35.2043 18.3944C33.7265 16.0936 32.3641 13.8432 31.1135 11.6804Z" fill="url(#paint22_linear_152_5659)"/>
<path d="M114.683 56.0481C106.954 56.0481 101.513 50.4939 101.513 41.8924C101.513 33.7153 106.797 27.891 115.354 27.891C122.53 27.891 127.46 32.0567 128.643 38.8839H123.792C122.925 34.641 119.731 32.0567 115.354 32.0567C109.833 32.0567 106.363 35.8367 106.363 41.8924C106.363 48.0253 109.872 51.8439 115.157 51.8439C119.455 51.8439 122.254 49.1053 122.254 45.2481H113.934V41.3524H123.359C126.908 41.3524 128.84 43.0881 128.84 46.3667V55.4696H124.66V47.2153H124.581C124.029 52.6153 120.401 56.0481 114.683 56.0481ZM143 56.0481C136.611 56.0481 132.234 51.5739 132.234 45.3253C132.234 38.5753 136.769 34.4096 142.605 34.4096C148.52 34.4096 152.464 38.4596 152.582 45.0939V46.1739H136.887C137.203 49.761 139.49 52.191 143.039 52.191C145.444 52.191 147.258 51.0339 147.968 48.9896H152.503C151.438 53.3867 147.929 56.0481 143 56.0481ZM137.085 42.9724H147.771C147.179 40.041 145.326 38.2667 142.605 38.2667C139.845 38.2667 137.794 40.041 137.085 42.9724ZM160.866 55.4696H156.213V35.0267H159.959L160.314 37.881C161.615 35.8753 164.178 34.4096 167.293 34.4096C170.29 34.4096 172.577 35.8753 173.681 38.2281C174.864 36.0681 177.546 34.4096 180.858 34.4096C185.235 34.4096 188.035 37.4567 188.035 41.8539V55.4696H183.343V42.0853C183.343 39.8096 181.923 38.3439 179.675 38.3439C176.481 38.3439 174.47 40.3881 174.431 43.0881V55.4696H169.778V42.0853C169.778 39.8096 168.358 38.3439 166.11 38.3439C162.916 38.3439 160.905 40.3881 160.866 43.0881V55.4696ZM197.22 55.4696H192.567V26.541H197.22V55.4696ZM204.365 32.2881C202.669 32.2881 201.368 30.9767 201.368 29.3181C201.368 27.6596 202.669 26.3867 204.365 26.3867C206.1 26.3867 207.362 27.6596 207.362 29.3181C207.362 30.9767 206.1 32.2881 204.365 32.2881ZM206.691 55.4696H202.038V35.0267H206.691V55.4696ZM216.087 55.4696H211.434V35.0267H215.18L215.575 38.0353C216.876 35.9139 219.518 34.4096 222.633 34.4096C227.089 34.4096 230.007 37.341 230.007 41.931V55.4696H225.354V42.1624C225.354 39.8867 223.816 38.3824 221.214 38.3824C218.177 38.3824 216.127 40.4267 216.087 43.0881V55.4696ZM244.124 56.0481C237.736 56.0481 233.359 51.5739 233.359 45.3253C233.359 38.5753 237.893 34.4096 243.729 34.4096C249.644 34.4096 253.588 38.4596 253.706 45.0939V46.1739H238.012C238.327 49.761 240.614 52.191 244.163 52.191C246.569 52.191 248.383 51.0339 249.092 48.9896H253.627C252.562 53.3867 249.053 56.0481 244.124 56.0481ZM238.209 42.9724H248.895C248.304 40.041 246.45 38.2667 243.729 38.2667C240.969 38.2667 238.919 40.041 238.209 42.9724Z" fill="white"/>
<defs>
<linearGradient id="paint0_linear_152_5659" x1="48.9269" y1="19.0992" x2="48.0905" y2="28.9951" gradientUnits="userSpaceOnUse">
<stop stop-color="#21B639"/>
<stop offset="1" stop-color="#2DE74A"/>
</linearGradient>
<linearGradient id="paint1_linear_152_5659" x1="61.8501" y1="18.6114" x2="60.1091" y2="35.7463" gradientUnits="userSpaceOnUse">
<stop stop-color="#146FC3"/>
<stop offset="1" stop-color="#00BCF8"/>
</linearGradient>
<linearGradient id="paint2_linear_152_5659" x1="36.674" y1="25.4515" x2="36.2082" y2="42.3672" gradientUnits="userSpaceOnUse">
<stop stop-color="#1FD53C"/>
<stop offset="1" stop-color="#3EFF5D"/>
</linearGradient>
<linearGradient id="paint3_linear_152_5659" x1="29.632" y1="13.4206" x2="36.0736" y2="17.2221" gradientUnits="userSpaceOnUse">
<stop stop-color="#1FB237"/>
<stop offset="1" stop-color="#2CD247"/>
</linearGradient>
<linearGradient id="paint4_linear_152_5659" x1="21.208" y1="35.7717" x2="18.0908" y2="25.1084" gradientUnits="userSpaceOnUse">
<stop stop-color="#FF4154"/>
<stop offset="1" stop-color="#CB313D"/>
</linearGradient>
<linearGradient id="paint5_linear_152_5659" x1="23.4538" y1="42.3661" x2="21.1839" y2="39.0869" gradientUnits="userSpaceOnUse">
<stop stop-color="#FF4154"/>
<stop offset="1" stop-color="#D83846"/>
</linearGradient>
<linearGradient id="paint6_linear_152_5659" x1="13.8997" y1="41.8166" x2="7.79324" y2="35.6362" gradientUnits="userSpaceOnUse">
<stop stop-color="#FF4154"/>
<stop offset="1" stop-color="#CB313D"/>
</linearGradient>
<linearGradient id="paint7_linear_152_5659" x1="79.7003" y1="36.3206" x2="63.9163" y2="41.7843" gradientUnits="userSpaceOnUse">
<stop stop-color="#146FC3"/>
<stop offset="1" stop-color="#00BCF8"/>
</linearGradient>
<linearGradient id="paint8_linear_152_5659" x1="2.22944" y1="50.3044" x2="8.32817" y2="48.5863" gradientUnits="userSpaceOnUse">
<stop stop-color="#146FC3"/>
<stop offset="1" stop-color="#00BCF8"/>
</linearGradient>
<linearGradient id="paint9_linear_152_5659" x1="9.15299" y1="57.1231" x2="10.7819" y2="51.2901" gradientUnits="userSpaceOnUse">
<stop stop-color="#146FC3"/>
<stop offset="1" stop-color="#00BCF8"/>
</linearGradient>
<linearGradient id="paint10_linear_152_5659" x1="16.6465" y1="64.3497" x2="19.8828" y2="49.9794" gradientUnits="userSpaceOnUse">
<stop stop-color="#146FC3"/>
<stop offset="1" stop-color="#00BCF8"/>
</linearGradient>
<linearGradient id="paint11_linear_152_5659" x1="35.5041" y1="47.6175" x2="43.0736" y2="58.1543" gradientUnits="userSpaceOnUse">
<stop stop-color="#3EFF5D"/>
<stop offset="1" stop-color="#1FD53C"/>
</linearGradient>
<linearGradient id="paint12_linear_152_5659" x1="44.6665" y1="61.0297" x2="41.7513" y2="59.6813" gradientUnits="userSpaceOnUse">
<stop stop-color="#1FD03B"/>
<stop offset="1" stop-color="#1FDC3D"/>
</linearGradient>
<linearGradient id="paint13_linear_152_5659" x1="30.4462" y1="72.8385" x2="26.8893" y2="70.4867" gradientUnits="userSpaceOnUse">
<stop stop-color="#1FD03B"/>
<stop offset="1" stop-color="#1FDC3D"/>
</linearGradient>
<linearGradient id="paint14_linear_152_5659" x1="40.8119" y1="75.1578" x2="34.3192" y2="70.7474" gradientUnits="userSpaceOnUse">
<stop stop-color="#1FB237"/>
<stop offset="1" stop-color="#2CD247"/>
</linearGradient>
<linearGradient id="paint15_linear_152_5659" x1="43.0392" y1="87.0857" x2="40.5021" y2="77.949" gradientUnits="userSpaceOnUse">
<stop stop-color="#1FA434"/>
<stop offset="1" stop-color="#1FB637"/>
</linearGradient>
<linearGradient id="paint16_linear_152_5659" x1="53.5636" y1="74.5109" x2="53.7329" y2="81.2516" gradientUnits="userSpaceOnUse">
<stop stop-color="#CE303D"/>
<stop offset="1" stop-color="#C2323D"/>
</linearGradient>
<linearGradient id="paint17_linear_152_5659" x1="55.8568" y1="62.1514" x2="57.7374" y2="73.1492" gradientUnits="userSpaceOnUse">
<stop stop-color="#E03A49"/>
<stop offset="1" stop-color="#C82D39"/>
</linearGradient>
<linearGradient id="paint18_linear_152_5659" x1="52.1714" y1="52.8087" x2="54.8711" y2="60.8931" gradientUnits="userSpaceOnUse">
<stop stop-color="#FF4154"/>
<stop offset="1" stop-color="#D83846"/>
</linearGradient>
<linearGradient id="paint19_linear_152_5659" x1="52.1061" y1="52.8088" x2="54.867" y2="60.8467" gradientUnits="userSpaceOnUse">
<stop stop-color="#FF4154"/>
<stop offset="1" stop-color="#D83846"/>
</linearGradient>
<linearGradient id="paint20_linear_152_5659" x1="68.3813" y1="60.3071" x2="69.1226" y2="65.2121" gradientUnits="userSpaceOnUse">
<stop stop-color="#E03A49"/>
<stop offset="1" stop-color="#C82D39"/>
</linearGradient>
<linearGradient id="paint21_linear_152_5659" x1="57.0381" y1="47.4955" x2="71.9036" y2="58.9251" gradientUnits="userSpaceOnUse">
<stop stop-color="#FF4154"/>
<stop offset="1" stop-color="#D83846"/>
</linearGradient>
<linearGradient id="paint22_linear_152_5659" x1="42.3701" y1="0.230469" x2="39.6803" y2="20.5813" gradientUnits="userSpaceOnUse">
<stop stop-color="#1FA434"/>
<stop offset="1" stop-color="#28D243"/>
</linearGradient>
</defs>
</svg>
