<svg width="100" height="36" viewBox="0 0 100 36" fill="none" xmlns="http://www.w3.org/2000/svg">
<g clip-path="url(#clip0_152_5615)">
<path d="M20.5624 6.39258C20.5092 6.42373 20.4596 6.44933 20.4061 6.48086C19.4469 7.04565 18.4786 7.64694 17.4808 8.284C16.9659 8.61271 15.9229 9.28808 15.8824 9.31359C15.6975 9.43004 15.5169 9.55748 15.334 9.67835C16.3711 11.2003 17.7805 13.1305 18.9789 14.7555C19.3626 11.8873 19.8927 9.06472 20.5536 6.42787C20.5561 6.41817 20.5598 6.40358 20.5624 6.39258Z" fill="#565B68"/>
<path d="M21.7201 5.67461C21.8607 5.59648 21.9788 5.53991 22.1152 5.46582C23.5991 6.95128 25.1064 8.45519 26.6477 9.9958C26.6011 10.0496 26.5653 10.0881 26.518 10.1428C26.3483 10.3394 22.7666 14.4825 20.6438 16.9407C20.6202 16.9407 20.6112 16.9408 20.5877 16.9407C20.4539 16.7617 20.0067 16.1535 19.7502 15.8082C20.1326 12.6444 20.7075 9.52035 21.434 6.62183C21.4962 6.37389 21.6522 5.73052 21.6522 5.73052C21.6548 5.72007 21.6557 5.72026 21.6582 5.7099C21.6781 5.69879 21.7002 5.68571 21.7201 5.67461Z" fill="#565B68"/>
<path d="M10.4746 13.479C11.8345 12.241 13.1556 11.1544 14.5147 10.1963C15.6471 11.8853 16.9761 13.706 18.7759 16.1087C18.7431 16.3919 18.7142 16.6755 18.6845 16.9587C15.4927 16.9468 13.9734 16.9389 10.5071 16.9295C10.5597 15.7061 10.5448 14.5639 10.4746 13.479Z" fill="#565B68"/>
<path d="M9.26318 7.59297C10.2622 6.58635 10.482 6.36401 11.4867 5.35156C11.9517 6.16277 12.4409 6.99158 12.9789 7.84598C13.3454 8.42808 13.6576 8.90381 13.9933 9.4138C12.7743 10.2706 11.5867 11.2207 10.3809 12.2877C10.2917 11.5034 10.174 10.7384 10.0063 9.99326C9.8257 9.19053 9.598 8.46508 9.26318 7.59297Z" fill="#565B68"/>
<path d="M5.89673 10.9873C7.08035 9.79853 7.32062 9.5521 8.53303 8.33105C8.77017 8.98769 8.94617 9.57092 9.08744 10.199C9.29551 11.1232 9.41724 12.091 9.50028 13.0905C8.46876 14.0459 7.42101 15.063 6.3007 16.235C6.42433 15.2338 6.4816 14.3775 6.43339 13.4875C6.43178 13.4578 6.41054 13.076 6.40395 12.9816C6.38611 12.728 6.36355 12.494 6.33023 12.2698C6.24776 11.7157 6.11339 11.2903 5.89673 10.9873Z" fill="#565B68"/>
<path d="M6.95166 16.917C7.86964 15.9558 8.73998 15.0964 9.59098 14.2871C9.62034 15.1196 9.60505 16.0052 9.56446 16.9258C8.48624 16.923 7.91854 16.9187 6.95166 16.917Z" fill="#565B68"/>
<path d="M0.0711812 16.9299C0.209747 16.8428 2.59618 14.4592 5.36156 11.6846C5.43789 11.8548 5.50792 12.0841 5.55614 12.4082C5.58558 12.6057 5.60776 12.8152 5.62399 13.0465C5.63022 13.1347 5.6488 13.5084 5.6505 13.5407C5.70779 14.5965 5.63994 15.5374 5.42941 16.9117C2.3306 16.9079 0.202909 16.9118 0.0711812 16.9299C0.0680448 16.9318 0.0660601 16.9327 0.0652486 16.9323C0.0636147 16.9315 0.065618 16.9306 0.0711812 16.9299Z" fill="#565B68"/>
<path d="M27.2363 10.7816C27.2665 10.7467 27.2889 10.7221 27.3188 10.6875C30.6899 14.0558 33.6557 17.0118 33.6915 17.0118C33.7164 17.0118 27.1327 16.9898 21.8899 16.9707C24.0538 14.4659 27.0836 10.9585 27.2363 10.7816Z" fill="#565B68"/>
<path d="M0.0848713 19.088C0.106415 19.0773 1.10474 20.0635 2.3732 21.3264C2.84363 20.817 3.27583 20.3418 3.79172 19.7911C3.96338 19.6077 4.28337 19.2693 4.43454 19.1085C2.09323 19.1087 0.0517016 19.1046 0.0848713 19.088Z" fill="#565B68"/>
<path d="M4.48206 20.4348C4.62021 20.2874 4.87849 20.0122 4.99815 19.8848C4.94784 20.154 4.92142 20.3013 4.89198 20.4614C4.68334 21.5954 4.56038 22.3788 4.47914 23.1734C4.47073 23.2557 4.47167 23.3322 4.46441 23.4116C3.91256 22.8588 3.53076 22.4807 3.04297 21.9938C3.51971 21.4773 3.95805 20.9944 4.48206 20.4348Z" fill="#565B68"/>
<path d="M6.09331 19.1084C7.30969 19.1067 8.14917 19.1004 9.57891 19.0967C9.5624 19.3202 9.55758 19.5229 9.53767 19.7526C9.42717 21.0267 9.2995 22.1145 9.02159 24.3032C8.85343 25.6275 8.79898 26.1612 8.72961 26.8064L8.72835 26.8067C8.4939 26.8711 8.26216 26.9345 8.02489 27.0005C7.08472 26.0525 6.49296 25.4528 5.34424 24.3002C5.36094 23.9554 5.37877 23.6249 5.415 23.2706C5.49324 22.5064 5.61157 21.7436 5.81606 20.632C5.84758 20.461 5.8725 20.328 5.9311 20.0145C5.99555 19.67 6.03961 19.4102 6.09331 19.1084Z" fill="#565B68"/>
<path d="M10.5273 19.0938C13.955 19.0843 15.8416 19.0755 18.6575 19.0645C18.621 19.4815 18.5952 19.8983 18.5661 20.3146L18.5019 20.3903C17.9681 21.0193 16.5823 22.6527 14.8446 24.7329C14.6719 24.9394 14.4957 25.1587 14.3225 25.3683C12.8384 25.7156 11.2956 26.115 9.71338 26.5389C9.78604 25.9156 9.81842 25.5443 9.9611 24.421C10.2405 22.2204 10.3681 21.1256 10.4801 19.8351C10.5026 19.5759 10.509 19.3458 10.5273 19.0938Z" fill="#565B68"/>
<path d="M15.8164 25.0411C17.0551 23.5593 17.7051 22.7959 18.4705 21.8906C18.4279 22.7748 18.4043 23.6499 18.3968 24.5205C17.5404 24.6886 16.6893 24.8482 15.8164 25.0411Z" fill="#565B68"/>
<path d="M9.59357 27.5479C10.8686 27.2032 12.1114 26.8833 13.318 26.5889C12.4766 27.6251 11.6323 28.6823 10.7761 29.7717C10.181 29.1722 10.0515 29.0429 9.48438 28.4714C9.50854 28.2225 9.56817 27.7867 9.59357 27.5479Z" fill="#565B68"/>
<path d="M14.8476 26.215C16.053 25.9358 17.229 25.692 18.3953 25.4619C18.3963 25.6451 18.3894 25.8325 18.3922 26.015C18.4107 27.1962 18.4758 28.3366 18.5633 29.4564C16.3869 29.9462 14.2588 30.5267 12.2054 31.2127C11.8503 30.8549 11.7932 30.7962 11.4475 30.4478C12.5966 28.9849 13.7265 27.5767 14.8476 26.215Z" fill="#565B68"/>
<path d="M12.9404 31.9543C14.7865 31.3537 16.6979 30.8451 18.6466 30.4072C18.7587 31.5547 18.9001 32.6746 19.089 33.7488C18.4365 34.4015 16.898 35.9402 16.898 35.9402C16.898 35.9402 14.7478 33.7748 12.9404 31.9543Z" fill="#565B68"/>
<path d="M19.5786 30.2068C20.8157 29.9468 22.0621 29.7067 23.3268 29.5098C21.7768 31.0601 21.1858 31.6507 19.9178 32.9189C19.7783 32.0402 19.6673 31.1358 19.5786 30.2068Z" fill="#565B68"/>
<path d="M19.3388 25.2769C21.0586 24.9538 22.7544 24.6752 24.4581 24.4443C24.7079 24.7898 25.0627 25.2657 25.2455 25.5268C25.501 25.892 25.7634 26.2775 26.086 26.7505C25.2754 27.5606 25.2432 27.5951 24.4552 28.3832C22.7764 28.6145 21.1245 28.9188 19.4921 29.2628C19.4116 28.2008 19.3534 27.1199 19.3357 26.0004C19.3321 25.7619 19.3396 25.5171 19.3388 25.2769Z" fill="#565B68"/>
<path d="M19.6011 19.0998C19.6023 19.087 19.6029 19.0742 19.6041 19.0616C19.6156 19.0614 19.6229 19.0616 19.6346 19.0616C19.6276 19.0694 19.61 19.0898 19.6011 19.0998Z" fill="#565B68"/>
<path d="M19.7819 20.3323C19.7855 20.328 20.4847 19.5189 20.6638 19.3115C20.9125 19.6427 22.4677 21.7288 23.8278 23.5857C22.3392 23.7951 20.8458 24.0512 19.3396 24.3329C19.3537 23.13 19.4004 21.9137 19.4811 20.6882C19.5586 20.5975 19.706 20.4211 19.7819 20.3323Z" fill="#565B68"/>
<path d="M25.5276 24.3032C26.6442 24.1646 27.7709 24.0413 28.913 23.9385C27.9429 24.9067 27.8055 25.0358 26.7662 26.0741C26.4917 25.6722 26.2445 25.3107 26.0171 24.9857C25.8595 24.7605 25.6847 24.5245 25.5276 24.3032Z" fill="#565B68"/>
<path d="M21.6484 19.052C26.5951 19.0329 33.8975 19.0078 33.8717 19.0078C33.8533 19.0078 31.5216 21.3418 29.9437 22.9142C28.2312 23.0508 26.5487 23.212 24.8951 23.4261C24.0321 22.2331 23.0906 20.9611 21.6484 19.052Z" fill="#565B68"/>
<path d="M12.2014 4.67177C14.1515 2.70662 16.7456 0.0917969 16.7456 0.0917969C16.7456 0.0917969 19.2078 2.55582 21.0571 4.40707C21.0035 4.60973 20.94 4.84768 20.8713 5.12772C20.5602 5.30488 20.2521 5.4809 19.9277 5.67189C18.9576 6.24306 17.9766 6.84709 16.9698 7.4898C16.4496 7.8219 15.4109 8.49529 15.3775 8.51638C15.1831 8.63866 14.9944 8.77195 14.8025 8.89873C14.4721 8.39759 14.1661 7.92986 13.8056 7.35737C13.2261 6.43706 12.6918 5.5369 12.2014 4.67177Z" fill="#565B68"/>
<path d="M44.9738 22.4193C41.9429 22.4193 39.8088 20.1975 39.8088 16.757C39.8088 13.4861 41.881 11.1564 45.2367 11.1564C48.0511 11.1564 49.9841 12.8227 50.448 15.5535H48.546C48.2057 13.8564 46.9532 12.8227 45.2367 12.8227C43.0717 12.8227 41.7109 14.3347 41.7109 16.757C41.7109 19.2101 43.0872 20.7375 45.1594 20.7375C46.8449 20.7375 47.9429 19.6421 47.9429 18.0993H44.68V16.541H48.3758C49.7676 16.541 50.5253 17.2353 50.5253 18.5467V22.1878H48.8862V18.8861H48.8552C48.6387 21.0461 47.2161 22.4193 44.9738 22.4193ZM56.0782 22.4193C53.573 22.4193 51.8566 20.6295 51.8566 18.1301C51.8566 15.4301 53.6349 13.7638 55.9236 13.7638C58.2432 13.7638 59.7895 15.3838 59.8359 18.0375V18.4695H53.6813C53.805 19.9044 54.7019 20.8764 56.0937 20.8764C57.037 20.8764 57.7483 20.4135 58.0267 19.5958H59.805C59.3875 21.3547 58.0112 22.4193 56.0782 22.4193ZM53.7586 17.189H57.9493C57.7174 16.0164 56.9906 15.3067 55.9236 15.3067C54.8411 15.3067 54.037 16.0164 53.7586 17.189ZM63.0845 22.1878H61.2598V14.0107H62.7289L62.868 15.1524C63.3784 14.3501 64.3835 13.7638 65.6052 13.7638C66.7804 13.7638 67.6773 14.3501 68.1103 15.2913C68.5742 14.4273 69.6258 13.7638 70.9247 13.7638C72.6412 13.7638 73.7392 14.9827 73.7392 16.7415V22.1878H71.899V16.8341C71.899 15.9238 71.3423 15.3375 70.4608 15.3375C69.2083 15.3375 68.4196 16.1553 68.4041 17.2353V22.1878H66.5794V16.8341C66.5794 15.9238 66.0227 15.3375 65.1412 15.3375C63.8887 15.3375 63.1 16.1553 63.0845 17.2353V22.1878ZM77.3411 22.1878H75.5163V10.6164H77.3411V22.1878ZM80.143 12.9153C79.4781 12.9153 78.9677 12.3907 78.9677 11.7272C78.9677 11.0638 79.4781 10.5547 80.143 10.5547C80.8234 10.5547 81.3183 11.0638 81.3183 11.7272C81.3183 12.3907 80.8234 12.9153 80.143 12.9153ZM81.0554 22.1878H79.2306V14.0107H81.0554V22.1878ZM84.7401 22.1878H82.9153V14.0107H84.3844L84.539 15.2141C85.0493 14.3655 86.0854 13.7638 87.3071 13.7638C89.0545 13.7638 90.1988 14.9364 90.1988 16.7724V22.1878H88.3741V16.865C88.3741 15.9547 87.771 15.353 86.7504 15.353C85.5597 15.353 84.7555 16.1707 84.7401 17.2353V22.1878ZM95.7348 22.4193C93.2296 22.4193 91.5131 20.6295 91.5131 18.1301C91.5131 15.4301 93.2915 13.7638 95.5801 13.7638C97.8997 13.7638 99.4461 15.3838 99.4925 18.0375V18.4695H93.3379C93.4616 19.9044 94.3585 20.8764 95.7502 20.8764C96.6935 20.8764 97.4049 20.4135 97.6832 19.5958H99.4616C99.044 21.3547 97.6677 22.4193 95.7348 22.4193ZM93.4152 17.189H97.6059C97.3739 16.0164 96.6471 15.3067 95.5801 15.3067C94.4976 15.3067 93.6935 16.0164 93.4152 17.189Z" fill="#565B68"/>
</g>
<defs>
<clipPath id="clip0_152_5615">
<rect width="100" height="36" fill="white"/>
</clipPath>
</defs>
</svg>
