<svg width="24" height="24" viewBox="0 0 24 24" fill="none" xmlns="http://www.w3.org/2000/svg">
<g id="Frame">
<path id="Vector" d="M3 12.5625C3 8.29805 6.1589 4.76836 10.2574 4.20586C10.58 4.16016 10.8534 4.42031 10.8534 4.74727V13.125L16.3403 18.627C16.5752 18.8625 16.5577 19.2492 16.2877 19.4391C14.9134 20.4234 13.2305 21 11.4144 21C6.76894 21 3 17.2242 3 12.5625ZM21.4555 13.125C21.7816 13.125 22.0375 13.3992 21.9955 13.7227C21.7255 15.6879 20.7824 17.4352 19.4045 18.7254C19.1942 18.9223 18.8646 18.9082 18.6613 18.7008L13.0973 13.125H21.4555Z" fill="white"/>
<path id="Vector_2" opacity="0.4" d="M12.5352 3.58359V11.4375H20.3675C20.6831 11.4375 20.9495 11.1914 20.9495 10.875C20.9495 6.52617 17.433 3 13.0961 3C12.7806 3 12.5352 3.26719 12.5352 3.58359Z" fill="white"/>
</g>
</svg>
