<svg width="40" height="40" viewBox="0 0 40 40" fill="none" xmlns="http://www.w3.org/2000/svg">
<rect width="40" height="40" rx="8" fill="#E0F5E9"/>
<path d="M11 20.563C11 16.2986 14.1589 12.7689 18.2574 12.2064C18.58 12.1607 18.8534 12.4209 18.8534 12.7478V21.1255L24.3403 26.6275C24.5752 26.863 24.5577 27.2498 24.2877 27.4396C22.9134 28.424 21.2305 29.0005 19.4144 29.0005C14.7689 29.0005 11 25.2248 11 20.563ZM29.4555 21.1255C29.7816 21.1255 30.0375 21.3998 29.9955 21.7232C29.7255 23.6884 28.7824 25.4357 27.4045 26.7259C27.1942 26.9228 26.8646 26.9087 26.6613 26.7013L21.0973 21.1255H29.4555Z" fill="#2DBB6E"/>
<path opacity="0.4" d="M20.5352 11.5836V19.4375H28.3675C28.6831 19.4375 28.9495 19.1914 28.9495 18.875C28.9495 14.5262 25.433 11 21.0961 11C20.7806 11 20.5352 11.2672 20.5352 11.5836Z" fill="#2DBB6E"/>
</svg>
