<svg width="36" height="36" viewBox="0 0 36 36" fill="none" xmlns="http://www.w3.org/2000/svg">
<rect width="36" height="36" rx="4" fill="#2A3252"/>
<path d="M9 18.5625C9 14.298 12.1589 10.7684 16.2574 10.2059C16.58 10.1602 16.8534 10.4203 16.8534 10.7473V19.125L22.3403 24.627C22.5752 24.8625 22.5577 25.2492 22.2877 25.4391C20.9134 26.4234 19.2305 27 17.4144 27C12.7689 27 9 23.2242 9 18.5625ZM27.4555 19.125C27.7816 19.125 28.0375 19.3992 27.9955 19.7227C27.7255 21.6879 26.7824 23.4352 25.4045 24.7254C25.1942 24.9223 24.8646 24.9082 24.6613 24.7008L19.0973 19.125H27.4555Z" fill="#2DBB6E"/>
<path opacity="0.4" d="M18.5352 9.58359V17.4375H26.3675C26.6831 17.4375 26.9495 17.1914 26.9495 16.875C26.9495 12.5262 23.433 9 19.0961 9C18.7806 9 18.5352 9.26719 18.5352 9.58359Z" fill="#2DBB6E"/>
</svg>
