<svg width="27" height="26" viewBox="0 0 27 26" fill="none" xmlns="http://www.w3.org/2000/svg">
<path d="M3.75 13.6094C3.75 8.98955 7.17214 5.16573 11.6122 4.55635C11.9616 4.50684 12.2579 4.78868 12.2579 5.14288V14.2188L18.202 20.1792C18.4565 20.4344 18.4375 20.8533 18.145 21.059C16.6561 22.1254 14.833 22.75 12.8656 22.75C7.83302 22.75 3.75 18.6596 3.75 13.6094ZM23.7435 14.2188C24.0967 14.2188 24.374 14.5158 24.3284 14.8662C24.036 16.9952 23.0143 18.8881 21.5216 20.2858C21.2937 20.4991 20.9367 20.4839 20.7164 20.2592L14.6887 14.2188H23.7435Z" fill="white"/>
<path opacity="0.4" d="M14.0798 3.88223V12.3906H22.5649C22.9068 12.3906 23.1954 12.124 23.1954 11.7812C23.1954 7.07002 19.3859 3.25 14.6875 3.25C14.3457 3.25 14.0798 3.53945 14.0798 3.88223Z" fill="white"/>
</svg>
