<svg width="36" height="36" viewBox="0 0 36 36" fill="none" xmlns="http://www.w3.org/2000/svg">
<rect width="36" height="36" rx="4" fill="#2A3252"/>
<circle opacity="0.4" cx="18" cy="18" r="9" fill="#A15BC2"/>
<path d="M18 9C20.3869 9 22.6761 9.94821 24.364 11.636C26.0518 13.3239 27 15.6131 27 18C27 20.3869 26.0518 22.6761 24.364 24.364C22.6761 26.0518 20.3869 27 18 27C15.6131 27 13.3239 26.0518 11.636 24.364C9.94821 22.6761 9 20.3869 9 18C9 15.6131 9.94821 13.3239 11.636 11.636C13.3239 9.94821 15.6131 9 18 9ZM17.1562 13.2188V18C17.1562 18.2812 17.2969 18.5449 17.5324 18.7031L20.9074 20.9531C21.2941 21.2133 21.818 21.1078 22.0781 20.7176C22.3383 20.3273 22.2328 19.807 21.8426 19.5469L18.8438 17.55V13.2188C18.8438 12.7512 18.4676 12.375 18 12.375C17.5324 12.375 17.1562 12.7512 17.1562 13.2188Z" fill="#A15BC2"/>
</svg>
