<svg width="40" height="40" viewBox="0 0 40 40" fill="none" xmlns="http://www.w3.org/2000/svg">
<rect width="40" height="40" rx="8" fill="#F1E7F6"/>
<circle opacity="0.4" cx="20" cy="20" r="9" fill="#A15BC2"/>
<path d="M20 11C22.3869 11 24.6761 11.9482 26.364 13.636C28.0518 15.3239 29 17.6131 29 20C29 22.3869 28.0518 24.6761 26.364 26.364C24.6761 28.0518 22.3869 29 20 29C17.6131 29 15.3239 28.0518 13.636 26.364C11.9482 24.6761 11 22.3869 11 20C11 17.6131 11.9482 15.3239 13.636 13.636C15.3239 11.9482 17.6131 11 20 11ZM19.1562 15.2188V20C19.1562 20.2812 19.2969 20.5449 19.5324 20.7031L22.9074 22.9531C23.2941 23.2133 23.818 23.1078 24.0781 22.7176C24.3383 22.3273 24.2328 21.807 23.8426 21.5469L20.8438 19.55V15.2188C20.8438 14.7512 20.4676 14.375 20 14.375C19.5324 14.375 19.1562 14.7512 19.1562 15.2188Z" fill="#A15BC2"/>
</svg>
