<svg width="26" height="26" viewBox="0 0 26 26" fill="none" xmlns="http://www.w3.org/2000/svg">
<circle opacity="0.4" cx="13" cy="13" r="9.75" fill="white"/>
<path d="M13 3.25C15.5859 3.25 18.0658 4.27723 19.8943 6.10571C21.7228 7.93419 22.75 10.4141 22.75 13C22.75 15.5859 21.7228 18.0658 19.8943 19.8943C18.0658 21.7228 15.5859 22.75 13 22.75C10.4141 22.75 7.93419 21.7228 6.10571 19.8943C4.27723 18.0658 3.25 15.5859 3.25 13C3.25 10.4141 4.27723 7.93419 6.10571 6.10571C7.93419 4.27723 10.4141 3.25 13 3.25ZM12.0859 7.82031V13C12.0859 13.3047 12.2383 13.5903 12.4935 13.7617L16.1497 16.1992C16.5687 16.4811 17.1361 16.3668 17.418 15.944C17.6998 15.5213 17.5855 14.9576 17.1628 14.6758L13.9141 12.5125V7.82031C13.9141 7.31377 13.5065 6.90625 13 6.90625C12.4935 6.90625 12.0859 7.31377 12.0859 7.82031Z" fill="white"/>
</svg>
