<svg width="16" height="16" viewBox="0 0 16 16" fill="none" xmlns="http://www.w3.org/2000/svg">
<path d="M4.57143 1.875V2.75H3.28571C2.57589 2.75 2 3.33789 2 4.0625V5.375H14V4.0625C14 3.33789 13.4241 2.75 12.7143 2.75H11.4286V1.875C11.4286 1.39102 11.0455 1 10.5714 1C10.0973 1 9.71429 1.39102 9.71429 1.875V2.75H6.28571V1.875C6.28571 1.39102 5.90268 1 5.42857 1C4.95446 1 4.57143 1.39102 4.57143 1.875ZM14 6.25H2V12.6875C2 13.4121 2.57589 14 3.28571 14H12.7143C13.4241 14 14 13.4121 14 12.6875V6.25Z" fill="#565B68"/>
</svg>
