<svg width="24" height="25" viewBox="0 0 24 25" fill="none" xmlns="http://www.w3.org/2000/svg">
<g opacity="0.4">
<path d="M11.4286 3.5H15.8607C16.3143 3.5 16.75 3.6793 17.0714 3.9957L19.4964 6.38281C19.8179 6.69922 20 7.12812 20 7.57461V15.3125C20 16.2441 19.2321 17 18.2857 17H11.4286C10.4821 17 9.71429 16.2441 9.71429 15.3125V5.1875C9.71429 4.25586 10.4821 3.5 11.4286 3.5ZM5.71429 8H8.57143V10.25H6.28571V19.25H13.1429V18.125H15.4286V19.8125C15.4286 20.7441 14.6607 21.5 13.7143 21.5H5.71429C4.76786 21.5 4 20.7441 4 19.8125V9.6875C4 8.75586 4.76786 8 5.71429 8Z" fill="#35343D"/>
</g>
</svg>
