<svg width="30" height="30" viewBox="0 0 30 30" fill="none" xmlns="http://www.w3.org/2000/svg">
<g clip-path="url(#clip0_218_8302)">
<rect width="30" height="30" rx="4" fill="white"/>
<path d="M15 8.875C12.7556 8.875 10.9584 9.88125 9.65004 11.0789C8.35004 12.2656 7.48059 13.6875 7.06948 14.6637C6.97782 14.8797 6.97782 15.1203 7.06948 15.3363C7.48059 16.3125 8.35004 17.7344 9.65004 18.9211C10.9584 20.1188 12.7556 21.125 15 21.125C17.2445 21.125 19.0417 20.1188 20.35 18.9211C21.65 17.7316 22.5195 16.3125 22.9334 15.3363C23.025 15.1203 23.025 14.8797 22.9334 14.6637C22.5195 13.6875 21.65 12.2656 20.35 11.0789C19.0417 9.88125 17.2445 8.875 15 8.875ZM11 15C11 13.9557 11.4215 12.9542 12.1716 12.2158C12.9218 11.4773 13.9392 11.0625 15 11.0625C16.0609 11.0625 17.0783 11.4773 17.8285 12.2158C18.5786 12.9542 19 13.9557 19 15C19 16.0443 18.5786 17.0458 17.8285 17.7842C17.0783 18.5227 16.0609 18.9375 15 18.9375C13.9392 18.9375 12.9218 18.5227 12.1716 17.7842C11.4215 17.0458 11 16.0443 11 15Z" fill="#2DBB6E"/>
<path opacity="0.4" d="M13.2223 15.0001C14.2028 15.0001 15 14.2154 15 13.2501C15 13.056 14.9667 12.87 14.9084 12.695C14.8584 12.5419 14.9528 12.3697 15.1139 12.3751C16.2473 12.4216 17.2667 13.1845 17.575 14.3193C17.9556 15.7193 17.1112 17.1603 15.6889 17.5349C14.2667 17.9095 12.8028 17.0783 12.4223 15.6783C12.3695 15.4896 12.3417 15.3009 12.3334 15.1122C12.3278 14.9536 12.5056 14.8607 12.6584 14.9099C12.8362 14.9673 13.025 15.0001 13.2223 15.0001Z" fill="#2DBB6E"/>
</g>
<defs>
<clipPath id="clip0_218_8302">
<rect width="30" height="30" fill="white"/>
</clipPath>
</defs>
</svg>
