<svg width="40" height="40" viewBox="0 0 40 40" fill="none" xmlns="http://www.w3.org/2000/svg">
<rect width="40" height="40" rx="8" fill="#CDEDFF"/>
<path d="M18.1638 21.4688C14.2063 21.4688 11 24.7418 11 28.7818C11 29.4545 11.5344 30 12.1933 30H27.8067C28.4656 30 29 29.4545 29 28.7818C29 24.7418 25.7937 21.4688 21.8362 21.4688H18.1638Z" fill="#379FF2"/>
<path opacity="0.4" d="M23.6349 17.9623C22.6704 18.9469 21.3623 19.5 19.9983 19.5C18.6344 19.5 17.3262 18.9469 16.3618 17.9623C15.3973 16.9777 14.8555 15.6424 14.8555 14.25C14.8555 12.8576 15.3973 11.5223 16.3618 10.5377C17.3262 9.55312 18.6344 9 19.9983 9C21.3623 9 22.6704 9.55312 23.6349 10.5377C24.5993 11.5223 25.1412 12.8576 25.1412 14.25C25.1412 15.6424 24.5993 16.9777 23.6349 17.9623Z" fill="#379FF2"/>
</svg>
