<svg width="24" height="24" viewBox="0 0 24 24" fill="none" xmlns="http://www.w3.org/2000/svg">
<g opacity="0.4">
<path d="M12 4.64844C9.30671 4.64844 7.15004 5.85594 5.58004 7.29312C4.02005 8.71719 2.97671 10.4234 2.48338 11.5948C2.37338 11.8541 2.37338 12.1428 2.48338 12.402C2.97671 13.5734 4.02005 15.2797 5.58004 16.7037C7.15004 18.1409 9.30671 19.3484 12 19.3484C14.6934 19.3484 16.85 18.1409 18.42 16.7037C19.98 15.2764 21.0234 13.5734 21.52 12.402C21.63 12.1428 21.63 11.8541 21.52 11.5948C21.0234 10.4234 19.98 8.71719 18.42 7.29312C16.85 5.85594 14.6934 4.64844 12 4.64844ZM7.20005 11.9984C7.20005 10.7453 7.70576 9.54347 8.60593 8.65736C9.50611 7.77125 10.727 7.27344 12 7.27344C13.2731 7.27344 14.494 7.77125 15.3942 8.65736C16.2943 9.54347 16.8 10.7453 16.8 11.9984C16.8 13.2516 16.2943 14.4534 15.3942 15.3395C14.494 16.2256 13.2731 16.7234 12 16.7234C10.727 16.7234 9.50611 16.2256 8.60593 15.3395C7.70576 14.4534 7.20005 13.2516 7.20005 11.9984Z" fill="#35343D"/>
<path d="M9.86662 12.0017C11.0433 12.0017 12 11.06 12 9.90172C12 9.66875 11.96 9.44562 11.89 9.23562C11.83 9.05187 11.9433 8.84515 12.1366 8.85171C13.4966 8.9075 14.72 9.82297 15.09 11.1847C15.5466 12.8647 14.5333 14.5939 12.8266 15.0434C11.12 15.493 9.36329 14.4955 8.90662 12.8155C8.84329 12.5891 8.80996 12.3627 8.79996 12.1362C8.79329 11.9459 9.00662 11.8344 9.18996 11.8934C9.40329 11.9623 9.62996 12.0017 9.86662 12.0017Z" fill="#35343D"/>
</g>
</svg>
