<svg width="30" height="30" viewBox="0 0 30 30" fill="none" xmlns="http://www.w3.org/2000/svg">
<g clip-path="url(#clip0_218_8386)">
<rect width="30" height="30" rx="4" fill="#428FCD"/>
<path d="M14.9993 8.875C12.7549 8.875 10.9576 9.88125 9.64931 11.0789C8.34931 12.2656 7.47986 13.6875 7.06875 14.6637C6.97708 14.8797 6.97708 15.1203 7.06875 15.3363C7.47986 16.3125 8.34931 17.7344 9.64931 18.9211C10.9576 20.1188 12.7549 21.125 14.9993 21.125C17.2438 21.125 19.041 20.1188 20.3493 18.9211C21.6493 17.7316 22.5187 16.3125 22.9326 15.3363C23.0243 15.1203 23.0243 14.8797 22.9326 14.6637C22.5187 13.6875 21.6493 12.2656 20.3493 11.0789C19.041 9.88125 17.2438 8.875 14.9993 8.875ZM10.9993 15C10.9993 13.9557 11.4207 12.9542 12.1709 12.2158C12.921 11.4773 13.9384 11.0625 14.9993 11.0625C16.0602 11.0625 17.0776 11.4773 17.8277 12.2158C18.5779 12.9542 18.9993 13.9557 18.9993 15C18.9993 16.0443 18.5779 17.0458 17.8277 17.7842C17.0776 18.5227 16.0602 18.9375 14.9993 18.9375C13.9384 18.9375 12.921 18.5227 12.1709 17.7842C11.4207 17.0458 10.9993 16.0443 10.9993 15Z" fill="white"/>
<path opacity="0.4" d="M13.221 15.0001C14.2016 15.0001 14.9988 14.2154 14.9988 13.2501C14.9988 13.056 14.9655 12.87 14.9072 12.695C14.8572 12.5419 14.9516 12.3697 15.1127 12.3751C16.246 12.4216 17.2655 13.1845 17.5738 14.3193C17.9544 15.7193 17.1099 17.1603 15.6877 17.5349C14.2655 17.9095 12.8016 17.0783 12.421 15.6783C12.3683 15.4896 12.3405 15.3009 12.3322 15.1122C12.3266 14.9536 12.5044 14.8607 12.6572 14.9099C12.8349 14.9673 13.0238 15.0001 13.221 15.0001Z" fill="white"/>
</g>
<defs>
<clipPath id="clip0_218_8386">
<rect width="30" height="30" fill="white"/>
</clipPath>
</defs>
</svg>
