<svg width="24" height="24" viewBox="0 0 24 24" fill="none" xmlns="http://www.w3.org/2000/svg">
<g id="Frame">
<path id="Vector" opacity="0.4" d="M16.5709 3.74248C16.7859 3.20734 16.6256 2.58236 16.1845 2.23863C15.7435 1.89489 15.142 1.92614 14.7301 2.30894L5.39882 11.0586C5.03432 11.4024 4.90309 11.9531 5.07441 12.4375C5.24573 12.9218 5.68313 13.25 6.16793 13.25H10.2322L13.7678 10.754L16.5709 3.74248Z" fill="white"/>
<path id="Vector_2" d="M10.2337 13.25L7.43069 20.2575C7.21563 20.7927 7.37601 21.4177 7.81706 21.7614C8.25811 22.1051 8.85954 22.0739 9.27143 21.6911L18.6028 12.9414C18.9673 12.5977 19.0985 12.0469 18.9272 11.5625C18.7558 11.0782 18.3221 10.754 17.8336 10.754H13.7694L10.2337 13.25Z" fill="white"/>
</g>
</svg>
