<svg width="27" height="26" viewBox="0 0 27 26" fill="none" xmlns="http://www.w3.org/2000/svg">
<path opacity="0.4" d="M18.4516 4.0537C18.6846 3.47397 18.5109 2.79691 18.0331 2.42453C17.5553 2.05214 16.9037 2.086 16.4575 2.5007L6.34856 11.9795C5.95368 12.3519 5.81152 12.9486 5.99712 13.4733C6.18271 13.998 6.65657 14.3535 7.18176 14.3535H11.5847L15.415 11.6495L18.4516 4.0537Z" fill="white"/>
<path d="M11.5865 14.3544L8.54991 21.9459C8.31693 22.5257 8.49068 23.2027 8.96848 23.5751C9.44629 23.9475 10.0978 23.9136 10.5441 23.4989L20.653 14.0201C21.0479 13.6477 21.19 13.0511 21.0044 12.5263C20.8188 12.0016 20.3489 11.6504 19.8198 11.6504H15.4169L11.5865 14.3544Z" fill="white"/>
</svg>
