<svg width="36" height="36" viewBox="0 0 36 36" fill="none" xmlns="http://www.w3.org/2000/svg">
<rect width="36" height="36" rx="4" fill="#2A3252"/>
<path opacity="0.4" d="M22.5709 9.74248C22.7859 9.20734 22.6256 8.58236 22.1845 8.23863C21.7435 7.89489 21.142 7.92614 20.7301 8.30894L11.3988 17.0586C11.0343 17.4024 10.9031 17.9531 11.0744 18.4375C11.2457 18.9218 11.6831 19.25 12.1679 19.25H16.2322L19.7678 16.754L22.5709 9.74248Z" fill="#428FCD"/>
<path d="M16.2337 19.25L13.4307 26.2575C13.2156 26.7927 13.376 27.4177 13.8171 27.7614C14.2581 28.1051 14.8595 28.0739 15.2714 27.6911L24.6028 18.9414C24.9673 18.5977 25.0985 18.0469 24.9272 17.5625C24.7558 17.0782 24.3221 16.754 23.8336 16.754H19.7694L16.2337 19.25Z" fill="#428FCD"/>
</svg>
