<svg width="40" height="40" viewBox="0 0 40 40" fill="none" xmlns="http://www.w3.org/2000/svg">
<rect width="40" height="40" rx="8" fill="#E1F1FD"/>
<path opacity="0.4" d="M24.5709 11.7425C24.7859 11.2073 24.6256 10.5824 24.1845 10.2386C23.7435 9.89489 23.142 9.92614 22.7301 10.3089L13.3988 19.0586C13.0343 19.4024 12.9031 19.9531 13.0744 20.4375C13.2457 20.9218 13.6831 21.25 14.1679 21.25H18.2322L21.7678 18.754L24.5709 11.7425Z" fill="#379FF2"/>
<path d="M18.2337 21.2499L15.4307 28.2575C15.2156 28.7926 15.376 29.4176 15.8171 29.7613C16.2581 30.1051 16.8595 30.0738 17.2714 29.691L26.6028 20.9413C26.9673 20.5976 27.0985 20.0468 26.9272 19.5625C26.7558 19.0781 26.3221 18.7539 25.8336 18.7539H21.7694L18.2337 21.2499Z" fill="#379FF2"/>
</svg>
