<svg width="20" height="20" viewBox="0 0 20 20" fill="none" xmlns="http://www.w3.org/2000/svg">
<g clip-path="url(#clip0_2066_43209)">
<path d="M10.0003 1.66602C14.6028 1.66602 18.3337 5.39685 18.3337 9.99935C18.3337 14.6018 14.6028 18.3327 10.0003 18.3327C5.39783 18.3327 1.66699 14.6018 1.66699 9.99935C1.66699 5.39685 5.39783 1.66602 10.0003 1.66602ZM10.0003 13.3327C9.77931 13.3327 9.56735 13.4205 9.41107 13.5768C9.25479 13.733 9.16699 13.945 9.16699 14.166C9.16699 14.387 9.25479 14.599 9.41107 14.7553C9.56735 14.9115 9.77931 14.9993 10.0003 14.9993C10.2213 14.9993 10.4333 14.9115 10.5896 14.7553C10.7459 14.599 10.8337 14.387 10.8337 14.166C10.8337 13.945 10.7459 13.733 10.5896 13.5768C10.4333 13.4205 10.2213 13.3327 10.0003 13.3327ZM10.0003 5.41601C9.19915 5.41601 8.43079 5.73428 7.86427 6.3008C7.29776 6.86731 6.97949 7.63567 6.97949 8.43685C6.97949 8.65786 7.06729 8.86982 7.22357 9.0261C7.37985 9.18238 7.59181 9.27018 7.81282 9.27018C8.03384 9.27018 8.2458 9.18238 8.40208 9.0261C8.55836 8.86982 8.64616 8.65786 8.64616 8.43685C8.64643 8.19104 8.71361 7.94995 8.84048 7.73942C8.96735 7.52889 9.14913 7.35686 9.36633 7.24178C9.58353 7.1267 9.82795 7.07291 10.0734 7.08617C10.3188 7.09944 10.5561 7.17926 10.7596 7.31708C10.9631 7.45489 11.1253 7.64551 11.2287 7.86849C11.3322 8.09147 11.373 8.33839 11.3468 8.5828C11.3205 8.8272 11.2283 9.05985 11.0799 9.25582C10.9315 9.45178 10.7326 9.60367 10.5045 9.69518C9.94116 9.92018 9.16699 10.4968 9.16699 11.4577V11.666C9.16699 11.887 9.25479 12.099 9.41107 12.2553C9.56735 12.4115 9.77931 12.4993 10.0003 12.4993C10.2213 12.4993 10.4333 12.4115 10.5896 12.2553C10.7459 12.099 10.8337 11.887 10.8337 11.666C10.8337 11.4627 10.8753 11.361 11.0512 11.2743L11.1237 11.241C11.7743 10.9793 12.3137 10.4993 12.6493 9.88345C12.9848 9.26758 13.0957 8.55417 12.9629 7.8655C12.8301 7.17684 12.4619 6.55582 11.9214 6.10891C11.3808 5.662 10.7017 5.41704 10.0003 5.41601Z" fill="#979EA5"/>
</g>
<defs>
<clipPath id="clip0_2066_43209">
<rect width="20" height="20" fill="white"/>
</clipPath>
</defs>
</svg>
