<svg width="26" height="26" viewBox="0 0 26 26" fill="none" xmlns="http://www.w3.org/2000/svg">
<path d="M13.0001 23.8332C18.9832 23.8332 23.8334 18.9829 23.8334 12.9998C23.8334 7.01675 18.9832 2.1665 13.0001 2.1665C7.017 2.1665 2.16675 7.01675 2.16675 12.9998C2.16675 18.9829 7.017 23.8332 13.0001 23.8332Z" stroke="white" stroke-width="2" stroke-linecap="round" stroke-linejoin="round"/>
<path d="M9.84741 9.75013C10.1021 9.0261 10.6048 8.41558 11.2665 8.02669C11.9282 7.6378 12.7062 7.49565 13.4627 7.6254C14.2192 7.75515 14.9053 8.14845 15.3996 8.73562C15.8939 9.32279 16.1644 10.0659 16.1632 10.8335C16.1632 13.0001 12.9132 14.0835 12.9132 14.0835" stroke="white" stroke-width="2" stroke-linecap="round" stroke-linejoin="round"/>
<path d="M13 18.4165H13.0114" stroke="white" stroke-width="2" stroke-linecap="round" stroke-linejoin="round"/>
</svg>
