<svg width="363" height="157" viewBox="0 0 363 157" fill="none" xmlns="http://www.w3.org/2000/svg">
<path fill-rule="evenodd" clip-rule="evenodd" d="M113.139 78.782L178.76 13.0839L244.381 78.782L178.76 144.48L113.139 78.782ZM178.76 115.698L141.887 78.782L178.76 41.8657L215.633 78.782L178.76 115.698Z" fill="#979EA5"/>
<path fill-rule="evenodd" clip-rule="evenodd" d="M216.793 78.7816L282.414 13.0835L348.035 78.7816L282.414 144.48L216.793 78.7816ZM282.414 115.698L245.541 78.7816L282.414 41.8654L319.287 78.7816L282.414 115.698Z" fill="#979EA5"/>
<path d="M106.608 36.0643H51.6772L48.8782 77.2676H50.1027C51.3856 74.685 52.7851 72.2786 54.3013 70.0482C55.8174 67.8178 57.5668 65.9396 59.5495 64.4136C61.5321 62.8875 63.8063 61.7136 66.3721 60.8919C69.0545 59.9528 72.2618 59.4833 75.9938 59.4833C81.242 59.4833 86.1403 60.3637 90.6888 62.1245C95.2372 63.8853 99.1442 66.4679 102.41 69.8721C105.792 73.159 108.416 77.2089 110.282 82.0218C112.265 86.8347 113.256 92.2933 113.256 98.3975C113.256 104.619 112.265 110.312 110.282 115.477C108.299 120.643 105.384 125.162 101.535 129.036C97.6863 132.792 92.963 135.727 87.3649 137.84C81.7668 139.953 75.3524 141.009 68.1215 141.009C62.5235 141.009 57.5085 140.364 53.0767 139.073C48.6449 137.899 44.7379 136.255 41.3557 134.142C37.9736 132.029 35.0579 129.623 32.6088 126.923C30.1596 124.106 28.002 121.171 26.136 118.119L42.9302 105.089C44.3297 107.436 45.7876 109.667 47.3037 111.78C48.8198 113.775 50.5692 115.536 52.5519 117.062C54.6512 118.588 56.9254 119.821 59.3745 120.76C61.9403 121.582 64.9143 121.993 68.2965 121.993C75.1774 121.993 80.3673 120.056 83.8661 116.182C87.4815 112.308 89.2892 107.026 89.2892 100.334V98.9257C89.2892 92.5867 87.4815 87.5978 83.8661 83.9587C80.2507 80.3197 75.2357 78.5002 68.8213 78.5002C63.8063 78.5002 59.7244 79.498 56.5755 81.4936C53.4266 83.3718 50.9191 85.4261 49.0531 87.6564L30.1596 85.0152L34.708 15.9909H106.608V36.0643Z" fill="#979EA5"/>
</svg>
