<svg width="24" height="24" viewBox="0 0 24 24" fill="none" xmlns="http://www.w3.org/2000/svg">
<path d="M10.1638 13.4688C6.20625 13.4688 3 16.7418 3 20.7818C3 21.4545 3.53438 22 4.1933 22H19.8067C20.4656 22 21 21.4545 21 20.7818C21 16.7418 17.7937 13.4688 13.8362 13.4688H10.1638Z" fill="white"/>
<path opacity="0.4" d="M15.6349 9.96231C14.6704 10.9469 13.3623 11.5 11.9983 11.5C10.6344 11.5 9.32625 10.9469 8.36178 9.96231C7.3973 8.97775 6.85547 7.64239 6.85547 6.25C6.85547 4.85761 7.3973 3.52226 8.36178 2.53769C9.32625 1.55312 10.6344 1 11.9983 1C13.3623 1 14.6704 1.55312 15.6349 2.53769C16.5993 3.52226 17.1412 4.85761 17.1412 6.25C17.1412 7.64239 16.5993 8.97775 15.6349 9.96231Z" fill="white"/>
</svg>
