<svg width="27" height="26" viewBox="0 0 27 26" fill="none" xmlns="http://www.w3.org/2000/svg">
<path d="M11.6638 14.4688C7.70625 14.4688 4.5 17.7418 4.5 21.7818C4.5 22.4545 5.03438 23 5.6933 23H21.3067C21.9656 23 22.5 22.4545 22.5 21.7818C22.5 17.7418 19.2937 14.4688 15.3362 14.4688H11.6638Z" fill="white"/>
<path opacity="0.4" d="M17.1349 10.9623C16.1704 11.9469 14.8623 12.5 13.4983 12.5C12.1344 12.5 10.8262 11.9469 9.86178 10.9623C8.8973 9.97775 8.35547 8.64239 8.35547 7.25C8.35547 5.85761 8.8973 4.52226 9.86178 3.53769C10.8262 2.55312 12.1344 2 13.4983 2C14.8623 2 16.1704 2.55312 17.1349 3.53769C18.0993 4.52226 18.6412 5.85761 18.6412 7.25C18.6412 8.64239 18.0993 9.97775 17.1349 10.9623Z" fill="white"/>
</svg>
