<svg width="36" height="36" viewBox="0 0 36 36" fill="none" xmlns="http://www.w3.org/2000/svg">
<rect width="36" height="36" rx="4" fill="#2A3252"/>
<path d="M16.1638 19.4688C12.2063 19.4688 9 22.7418 9 26.7818C9 27.4545 9.53438 28 10.1933 28H25.8067C26.4656 28 27 27.4545 27 26.7818C27 22.7418 23.7937 19.4688 19.8362 19.4688H16.1638Z" fill="#59A4DF"/>
<path opacity="0.4" d="M21.6349 15.9623C20.6704 16.9469 19.3623 17.5 17.9983 17.5C16.6344 17.5 15.3262 16.9469 14.3618 15.9623C13.3973 14.9777 12.8555 13.6424 12.8555 12.25C12.8555 10.8576 13.3973 9.52226 14.3618 8.53769C15.3262 7.55312 16.6344 7 17.9983 7C19.3623 7 20.6704 7.55312 21.6349 8.53769C22.5993 9.52226 23.1412 10.8576 23.1412 12.25C23.1412 13.6424 22.5993 14.9777 21.6349 15.9623Z" fill="#59A4DF"/>
</svg>
