<svg width="36" height="36" viewBox="0 0 36 36" fill="none" xmlns="http://www.w3.org/2000/svg">
<rect width="36" height="36" rx="4" fill="#2A3252"/>
<path d="M18.0332 8C18.7668 8 19.3595 8.55859 19.3595 9.25V10.6445C19.4258 10.6523 19.488 10.6602 19.5543 10.6719C19.5709 10.6758 19.5833 10.6758 19.5999 10.6797L21.5893 11.0234C22.3105 11.1484 22.7871 11.8008 22.6545 12.4766C22.5219 13.1523 21.8297 13.6055 21.1127 13.4805L19.144 13.1406C17.8467 12.9609 16.7027 13.082 15.8987 13.3828C15.0946 13.6836 14.7713 14.0977 14.6967 14.4805C14.6138 14.8984 14.676 15.1328 14.7464 15.2773C14.821 15.4297 14.9744 15.6016 15.277 15.793C15.9525 16.2109 16.9887 16.4844 18.3316 16.8203L18.4518 16.8516C19.6372 17.1484 21.0878 17.5078 22.1654 18.1719C22.754 18.5352 23.3094 19.0273 23.6534 19.7148C24.0057 20.4141 24.0803 21.1953 23.9186 22.0273C23.6327 23.5117 22.5467 24.5039 21.1997 25.0234C20.6319 25.2422 20.0143 25.3828 19.3595 25.4531V26.75C19.3595 27.4414 18.7668 28 18.0332 28C17.2996 28 16.7069 27.4414 16.7069 26.75V25.3867C16.6903 25.3828 16.6696 25.3828 16.653 25.3789H16.6447C15.6334 25.2305 13.9714 24.8203 12.8523 24.3516C12.185 24.0703 11.8825 23.332 12.1809 22.7031C12.4793 22.0742 13.2626 21.7891 13.9299 22.0703C14.7962 22.4336 16.2219 22.793 17.0467 22.9141C18.3689 23.0977 19.459 22.9922 20.1967 22.707C20.8972 22.4375 21.2163 22.0469 21.3075 21.5781C21.3862 21.1641 21.3241 20.9258 21.2536 20.7812C21.1749 20.625 21.0215 20.4531 20.7148 20.2617C20.0351 19.8438 18.9947 19.5703 17.6477 19.2344L17.5317 19.207C16.3504 18.9102 14.8998 18.5469 13.8222 17.8828C13.2336 17.5195 12.6824 17.0234 12.3384 16.3359C11.9902 15.6367 11.9198 14.8555 12.0855 14.0234C12.384 12.5312 13.5693 11.5625 14.9164 11.0586C15.4676 10.8516 16.0727 10.7109 16.7069 10.6289V9.25C16.7069 8.55859 17.2996 8 18.0332 8Z" fill="#2DBB6E"/>
</svg>
