<svg width="40" height="40" viewBox="0 0 40 40" fill="none" xmlns="http://www.w3.org/2000/svg">
<rect width="40" height="40" rx="8" fill="#E0F5E9"/>
<path d="M20.0332 10C20.7668 10 21.3595 10.5586 21.3595 11.25V12.6445C21.4258 12.6523 21.488 12.6602 21.5543 12.6719C21.5709 12.6758 21.5833 12.6758 21.5999 12.6797L23.5893 13.0234C24.3105 13.1484 24.7871 13.8008 24.6545 14.4766C24.5219 15.1523 23.8297 15.6055 23.1127 15.4805L21.144 15.1406C19.8467 14.9609 18.7027 15.082 17.8987 15.3828C17.0946 15.6836 16.7713 16.0977 16.6967 16.4805C16.6138 16.8984 16.676 17.1328 16.7464 17.2773C16.821 17.4297 16.9744 17.6016 17.277 17.793C17.9525 18.2109 18.9887 18.4844 20.3316 18.8203L20.4518 18.8516C21.6372 19.1484 23.0878 19.5078 24.1654 20.1719C24.754 20.5352 25.3094 21.0273 25.6534 21.7148C26.0057 22.4141 26.0803 23.1953 25.9186 24.0273C25.6327 25.5117 24.5467 26.5039 23.1997 27.0234C22.6319 27.2422 22.0143 27.3828 21.3595 27.4531V28.75C21.3595 29.4414 20.7668 30 20.0332 30C19.2996 30 18.7069 29.4414 18.7069 28.75V27.3867C18.6903 27.3828 18.6696 27.3828 18.653 27.3789H18.6447C17.6334 27.2305 15.9714 26.8203 14.8523 26.3516C14.185 26.0703 13.8825 25.332 14.1809 24.7031C14.4793 24.0742 15.2626 23.7891 15.9299 24.0703C16.7962 24.4336 18.2219 24.793 19.0467 24.9141C20.3689 25.0977 21.459 24.9922 22.1967 24.707C22.8972 24.4375 23.2163 24.0469 23.3075 23.5781C23.3862 23.1641 23.3241 22.9258 23.2536 22.7812C23.1749 22.625 23.0215 22.4531 22.7148 22.2617C22.0351 21.8438 20.9947 21.5703 19.6477 21.2344L19.5317 21.207C18.3504 20.9102 16.8998 20.5469 15.8222 19.8828C15.2336 19.5195 14.6824 19.0234 14.3384 18.3359C13.9902 17.6367 13.9198 16.8555 14.0855 16.0234C14.384 14.5312 15.5693 13.5625 16.9164 13.0586C17.4676 12.8516 18.0727 12.7109 18.7069 12.6289V11.25C18.7069 10.5586 19.2996 10 20.0332 10Z" fill="#2DBB6E"/>
</svg>
