<svg width="37" height="40" viewBox="0 0 37 40" fill="none" xmlns="http://www.w3.org/2000/svg">
<g id="Logo" clip-path="url(#clip0_665_251)">
<path id="Vector" d="M22.6186 7.10352C22.5601 7.13813 22.5055 7.16657 22.4467 7.20161C21.3916 7.82915 20.3264 8.49725 19.2288 9.2051C18.6625 9.57032 17.5152 10.3207 17.4706 10.3491C17.2671 10.4785 17.0685 10.6201 16.8673 10.7544C18.0081 12.4455 19.5585 14.5901 20.8767 16.3956C21.2987 13.2087 21.8819 10.0726 22.6089 7.14273C22.6116 7.13196 22.6157 7.11574 22.6186 7.10352Z" fill="url(#paint0_linear_665_251)"/>
<path id="Vector_2" d="M23.892 6.3062C24.0467 6.21939 24.1766 6.15654 24.3267 6.07422C25.959 7.72473 27.6169 9.39574 29.3125 11.1075C29.2611 11.1673 29.2217 11.2101 29.1697 11.2709C28.9831 11.4893 25.0432 16.0927 22.7081 18.8241C22.6822 18.8241 22.6723 18.8242 22.6464 18.8241C22.4993 18.6252 22.0073 17.9495 21.7252 17.5658C22.1458 14.0504 22.7782 10.5792 23.5774 7.35868C23.6458 7.08318 23.8173 6.36832 23.8173 6.36832C23.8202 6.35672 23.8212 6.35693 23.824 6.34542C23.8458 6.33308 23.8701 6.31855 23.892 6.3062Z" fill="url(#paint1_linear_665_251)"/>
<path id="Vector_3" d="M11.5222 14.9756C13.0181 13.6 14.4713 12.3927 15.9663 11.3281C17.2119 13.2048 18.6739 15.2278 20.6537 17.8975C20.6176 18.2121 20.5858 18.5272 20.5531 18.842C17.0422 18.8287 15.3709 18.8199 11.5579 18.8095C11.6159 17.4501 11.5994 16.181 11.5222 14.9756Z" fill="url(#paint2_linear_665_251)"/>
<path id="Vector_4" d="M10.1893 8.43576C11.2883 7.3173 11.5301 7.07026 12.6352 5.94531C13.1467 6.84665 13.6848 7.76755 14.2766 8.71689C14.6797 9.36366 15.0232 9.89225 15.3924 10.4589C14.0515 11.4109 12.7452 12.4666 11.4188 13.6521C11.3207 12.7807 11.1912 11.9307 11.0068 11.1027C10.8081 10.2108 10.5576 9.40477 10.1893 8.43576Z" fill="url(#paint3_linear_665_251)"/>
<path id="Vector_5" d="M6.48633 12.2072C7.78831 10.8864 8.05261 10.6126 9.38626 9.25586C9.64712 9.98546 9.84071 10.6335 9.99611 11.3313C10.225 12.3582 10.3589 13.4335 10.4502 14.5441C9.31556 15.6057 8.16304 16.7358 6.9307 18.038C7.06669 16.9255 7.12969 15.9742 7.07665 14.9853C7.07489 14.9523 7.05152 14.528 7.04427 14.4231C7.02465 14.1414 6.99983 13.8814 6.96318 13.6322C6.87246 13.0166 6.72465 12.5439 6.48633 12.2072Z" fill="url(#paint4_linear_665_251)"/>
<path id="Vector_6" d="M7.64673 18.7971C8.65651 17.7291 9.61388 16.7742 10.55 15.875C10.5823 16.8 10.5655 17.784 10.5208 18.8069C9.33477 18.8038 8.71029 18.799 7.64673 18.7971Z" fill="url(#paint5_linear_665_251)"/>
<path id="Vector_7" d="M0.0782993 18.8106C0.230722 18.7138 2.8558 16.0653 5.89771 12.9824C5.98168 13.1716 6.05871 13.4263 6.11175 13.7865C6.14414 14.0059 6.16854 14.2387 6.18639 14.4957C6.19324 14.5937 6.21368 15.0089 6.21555 15.0448C6.27857 16.2179 6.20393 17.2633 5.97235 18.7903C2.56366 18.7861 0.2232 18.7905 0.0782993 18.8106C0.0748493 18.8127 0.0726661 18.8137 0.0717735 18.8132C0.0699762 18.8124 0.0721798 18.8114 0.0782993 18.8106Z" fill="url(#paint6_linear_665_251)"/>
<path id="Vector_8" d="M29.96 11.9796C29.9932 11.9408 30.0178 11.9135 30.0507 11.875C33.759 15.6176 37.0214 18.902 37.0608 18.902C37.0881 18.902 29.8461 18.8775 24.079 18.8563C26.4593 16.0733 29.792 12.1761 29.96 11.9796Z" fill="url(#paint7_linear_665_251)"/>
<path id="Vector_9" d="M0.0934561 21.2091C0.117154 21.1972 1.21531 22.293 2.61062 23.6963C3.12809 23.1302 3.60351 22.6022 4.17099 21.9903C4.35982 21.7866 4.7118 21.4105 4.8781 21.2319C2.30265 21.2321 0.0569695 21.2275 0.0934561 21.2091Z" fill="url(#paint8_linear_665_251)"/>
<path id="Vector_10" d="M4.93016 22.7049C5.08214 22.5411 5.36624 22.2353 5.49787 22.0938C5.44253 22.3929 5.41347 22.5566 5.38108 22.7344C5.15157 23.9945 5.01632 24.8649 4.92696 25.7478C4.91771 25.8392 4.91874 25.9243 4.91076 26.0124C4.30371 25.3982 3.88374 24.9782 3.34717 24.4371C3.87159 23.8632 4.35376 23.3267 4.93016 22.7049Z" fill="url(#paint9_linear_665_251)"/>
<path id="Vector_11" d="M6.70276 21.2318C8.04078 21.2299 8.96421 21.2228 10.5369 21.2188C10.5188 21.4671 10.5135 21.6924 10.4916 21.9476C10.37 23.3632 10.2296 24.5719 9.92387 27.0037C9.73889 28.4752 9.679 29.0682 9.6027 29.7851L9.6013 29.7854C9.34341 29.857 9.0885 29.9275 8.8275 30.0008C7.79332 28.9474 7.14237 28.2811 5.87878 27.0005C5.89716 26.6173 5.91677 26.2501 5.95663 25.8565C6.04268 25.0073 6.17285 24.1598 6.39779 22.9247C6.43246 22.7347 6.45987 22.5869 6.52433 22.2385C6.59523 21.8558 6.6437 21.5672 6.70276 21.2318Z" fill="url(#paint10_linear_665_251)"/>
<path id="Vector_12" d="M11.58 21.2143C15.3505 21.2037 17.4258 21.1939 20.5233 21.1816C20.4831 21.645 20.4547 22.1082 20.4227 22.5707L20.352 22.6548C19.7649 23.3537 18.2405 25.1686 16.329 27.4799C16.1391 27.7093 15.9452 27.9531 15.7547 28.1859C14.1222 28.5718 12.4252 29.0156 10.6847 29.4866C10.7646 28.794 10.8002 28.3815 10.9572 27.1333C11.2645 24.6883 11.4049 23.4718 11.5281 22.038C11.5528 21.75 11.5599 21.4943 11.58 21.2143Z" fill="url(#paint11_linear_665_251)"/>
<path id="Vector_13" d="M17.3982 27.8228C18.7608 26.1763 19.4757 25.3281 20.3176 24.3223C20.2708 25.3046 20.2449 26.277 20.2366 27.2444C19.2946 27.4312 18.3584 27.6085 17.3982 27.8228Z" fill="url(#paint12_linear_665_251)"/>
<path id="Vector_14" d="M10.553 30.6086C11.9555 30.2256 13.3226 29.8702 14.6498 29.543C13.7244 30.6943 12.7956 31.869 11.8537 33.0795C11.1991 32.4133 11.0567 32.2697 10.4329 31.6347C10.4594 31.3582 10.525 30.8739 10.553 30.6086Z" fill="url(#paint13_linear_665_251)"/>
<path id="Vector_15" d="M16.3323 29.1278C17.6583 28.8175 18.9519 28.5467 20.2348 28.291C20.236 28.4946 20.2283 28.7028 20.2314 28.9055C20.2518 30.218 20.3234 31.4851 20.4197 32.7294C18.0256 33.2735 15.6847 33.9186 13.4259 34.6807C13.0353 34.2832 12.9725 34.218 12.5923 33.8309C13.8563 32.2055 15.0992 30.6407 16.3323 29.1278Z" fill="url(#paint14_linear_665_251)"/>
<path id="Vector_16" d="M14.2344 35.5042C16.2651 34.8367 18.3676 34.2717 20.5112 33.7852C20.6345 35.0601 20.79 36.3045 20.9978 37.498C20.28 38.2232 18.5877 39.9329 18.5877 39.9329C18.5877 39.9329 16.2225 37.5269 14.2344 35.5042Z" fill="url(#paint15_linear_665_251)"/>
<path id="Vector_17" d="M21.5364 33.5636C22.8972 33.2746 24.2682 33.0078 25.6594 32.7891C23.9544 34.5117 23.3043 35.1678 21.9095 36.577C21.7561 35.6007 21.6339 34.5958 21.5364 33.5636Z" fill="url(#paint16_linear_665_251)"/>
<path id="Vector_18" d="M21.2727 28.0852C23.1644 27.7262 25.0299 27.4166 26.9039 27.1602C27.1787 27.544 27.569 28.0728 27.77 28.3629C28.0511 28.7686 28.3398 29.1971 28.6946 29.7226C27.8029 30.6227 27.7676 30.6611 26.9007 31.5366C25.054 31.7936 23.237 32.1317 21.4414 32.514C21.3527 31.334 21.2888 30.1331 21.2693 28.8891C21.2653 28.6242 21.2735 28.3522 21.2727 28.0852Z" fill="url(#paint17_linear_665_251)"/>
<path id="Vector_19" d="M21.561 21.2222C21.5624 21.208 21.5631 21.1938 21.5644 21.1798C21.5772 21.1796 21.5853 21.1798 21.5983 21.1798C21.5905 21.1884 21.571 21.2111 21.561 21.2222Z" fill="url(#paint18_linear_665_251)"/>
<path id="Vector_20" d="M21.7602 22.5912C21.7642 22.5865 22.5333 21.6874 22.7302 21.457C23.0039 21.825 24.7146 24.1429 26.2107 26.2061C24.5732 26.4387 22.9305 26.7233 21.2737 27.0363C21.2892 25.6998 21.3406 24.3483 21.4294 22.9867C21.5146 22.8859 21.6767 22.6898 21.7602 22.5912Z" fill="url(#paint19_linear_665_251)"/>
<path id="Vector_21" d="M28.0802 27.0029C29.3085 26.8489 30.5478 26.7119 31.8042 26.5977C30.737 27.6734 30.5859 27.8169 29.4426 28.9706C29.1407 28.524 28.8688 28.1224 28.6187 27.7612C28.4454 27.511 28.2531 27.2488 28.0802 27.0029Z" fill="url(#paint20_linear_665_251)"/>
<path id="Vector_22" d="M23.8135 21.1683C29.2548 21.1471 37.2874 21.1191 37.2591 21.1191C37.2388 21.1191 34.674 23.7124 32.9383 25.4596C31.0545 25.6114 29.2038 25.7905 27.3848 26.0284C26.4355 24.7028 25.3998 23.2894 23.8135 21.1683Z" fill="url(#paint21_linear_665_251)"/>
<path id="Vector_23" d="M13.4216 5.19042C15.5667 3.00693 18.4203 0.101562 18.4203 0.101562C18.4203 0.101562 21.1286 2.83937 23.1629 4.89631C23.1039 5.12149 23.0341 5.38588 22.9585 5.69703C22.6163 5.89388 22.2774 6.08946 21.9205 6.30167C20.8534 6.9363 19.7743 7.60745 18.6668 8.32157C18.0947 8.69057 16.952 9.43878 16.9153 9.46221C16.7014 9.59808 16.4939 9.74617 16.2828 9.88704C15.9194 9.33022 15.5828 8.81052 15.1863 8.17442C14.5488 7.15186 13.9611 6.15168 13.4216 5.19042Z" fill="url(#paint22_linear_665_251)"/>
</g>
<defs>
<linearGradient id="paint0_linear_665_251" x1="21.1058" y1="8.48916" x2="20.723" y2="12.8854" gradientUnits="userSpaceOnUse">
<stop stop-color="#21B639"/>
<stop offset="1" stop-color="#2DE74A"/>
</linearGradient>
<linearGradient id="paint1_linear_665_251" x1="26.6804" y1="8.2726" x2="25.8837" y2="15.8833" gradientUnits="userSpaceOnUse">
<stop stop-color="#146FC3"/>
<stop offset="1" stop-color="#00BCF8"/>
</linearGradient>
<linearGradient id="paint2_linear_665_251" x1="15.8202" y1="11.3109" x2="15.6069" y2="18.8287" gradientUnits="userSpaceOnUse">
<stop stop-color="#1FD53C"/>
<stop offset="1" stop-color="#3EFF5D"/>
</linearGradient>
<linearGradient id="paint3_linear_665_251" x1="12.7825" y1="5.96428" x2="15.6035" y2="7.5801" gradientUnits="userSpaceOnUse">
<stop stop-color="#1FB237"/>
<stop offset="1" stop-color="#2CD247"/>
</linearGradient>
<linearGradient id="paint4_linear_665_251" x1="9.14847" y1="15.8975" x2="7.72799" y2="11.181" gradientUnits="userSpaceOnUse">
<stop stop-color="#FF4154"/>
<stop offset="1" stop-color="#CB313D"/>
</linearGradient>
<linearGradient id="paint5_linear_665_251" x1="10.1173" y1="18.8294" x2="9.09818" y2="17.4004" gradientUnits="userSpaceOnUse">
<stop stop-color="#FF4154"/>
<stop offset="1" stop-color="#D83846"/>
</linearGradient>
<linearGradient id="paint6_linear_665_251" x1="5.99594" y1="18.5849" x2="3.28217" y2="15.9191" gradientUnits="userSpaceOnUse">
<stop stop-color="#FF4154"/>
<stop offset="1" stop-color="#CB313D"/>
</linearGradient>
<linearGradient id="paint7_linear_665_251" x1="34.3806" y1="16.1429" x2="27.5293" y2="18.4447" gradientUnits="userSpaceOnUse">
<stop stop-color="#146FC3"/>
<stop offset="1" stop-color="#00BCF8"/>
</linearGradient>
<linearGradient id="paint8_linear_665_251" x1="0.96164" y1="22.3581" x2="3.60372" y2="21.6357" gradientUnits="userSpaceOnUse">
<stop stop-color="#146FC3"/>
<stop offset="1" stop-color="#00BCF8"/>
</linearGradient>
<linearGradient id="paint9_linear_665_251" x1="3.94838" y1="25.3876" x2="4.69098" y2="22.8067" gradientUnits="userSpaceOnUse">
<stop stop-color="#146FC3"/>
<stop offset="1" stop-color="#00BCF8"/>
</linearGradient>
<linearGradient id="paint10_linear_665_251" x1="7.18092" y1="28.6003" x2="8.65848" y2="22.2324" gradientUnits="userSpaceOnUse">
<stop stop-color="#146FC3"/>
<stop offset="1" stop-color="#00BCF8"/>
</linearGradient>
<linearGradient id="paint11_linear_665_251" x1="15.3155" y1="21.1627" x2="18.7106" y2="25.7496" gradientUnits="userSpaceOnUse">
<stop stop-color="#3EFF5D"/>
<stop offset="1" stop-color="#1FD53C"/>
</linearGradient>
<linearGradient id="paint12_linear_665_251" x1="19.2679" y1="27.1232" x2="17.9974" y2="26.5529" gradientUnits="userSpaceOnUse">
<stop stop-color="#1FD03B"/>
<stop offset="1" stop-color="#1FDC3D"/>
</linearGradient>
<linearGradient id="paint13_linear_665_251" x1="13.1335" y1="32.3727" x2="11.5716" y2="31.3704" gradientUnits="userSpaceOnUse">
<stop stop-color="#1FD03B"/>
<stop offset="1" stop-color="#1FDC3D"/>
</linearGradient>
<linearGradient id="paint14_linear_665_251" x1="17.605" y1="33.4037" x2="14.7521" y2="31.5227" gradientUnits="userSpaceOnUse">
<stop stop-color="#1FB237"/>
<stop offset="1" stop-color="#2CD247"/>
</linearGradient>
<linearGradient id="paint15_linear_665_251" x1="18.5658" y1="38.7043" x2="17.4092" y2="34.6614" gradientUnits="userSpaceOnUse">
<stop stop-color="#1FA434"/>
<stop offset="1" stop-color="#1FB637"/>
</linearGradient>
<linearGradient id="paint16_linear_665_251" x1="23.1059" y1="33.1164" x2="23.1834" y2="36.1121" gradientUnits="userSpaceOnUse">
<stop stop-color="#CE303D"/>
<stop offset="1" stop-color="#C2323D"/>
</linearGradient>
<linearGradient id="paint17_linear_665_251" x1="24.0951" y1="27.6229" x2="24.9548" y2="32.5022" gradientUnits="userSpaceOnUse">
<stop stop-color="#E03A49"/>
<stop offset="1" stop-color="#C82D39"/>
</linearGradient>
<linearGradient id="paint18_linear_665_251" x1="22.5155" y1="23.471" x2="23.7338" y2="27.05" gradientUnits="userSpaceOnUse">
<stop stop-color="#FF4154"/>
<stop offset="1" stop-color="#D83846"/>
</linearGradient>
<linearGradient id="paint19_linear_665_251" x1="22.4772" y1="23.4706" x2="23.7333" y2="27.0199" gradientUnits="userSpaceOnUse">
<stop stop-color="#FF4154"/>
<stop offset="1" stop-color="#D83846"/>
</linearGradient>
<linearGradient id="paint20_linear_665_251" x1="29.4977" y1="26.8027" x2="29.8367" y2="28.9797" gradientUnits="userSpaceOnUse">
<stop stop-color="#E03A49"/>
<stop offset="1" stop-color="#C82D39"/>
</linearGradient>
<linearGradient id="paint21_linear_665_251" x1="24.6047" y1="21.108" x2="31.1584" y2="25.9988" gradientUnits="userSpaceOnUse">
<stop stop-color="#FF4154"/>
<stop offset="1" stop-color="#D83846"/>
</linearGradient>
<linearGradient id="paint22_linear_665_251" x1="18.2774" y1="0.101563" x2="17.047" y2="9.13685" gradientUnits="userSpaceOnUse">
<stop stop-color="#1FA434"/>
<stop offset="1" stop-color="#28D243"/>
</linearGradient>
<clipPath id="clip0_665_251">
<rect width="37" height="40" fill="white"/>
</clipPath>
</defs>
</svg>
