<svg width="30" height="30" viewBox="0 0 30 30" fill="none" xmlns="http://www.w3.org/2000/svg">
<path d="M15 6.39759C17.7831 6.39759 18.1627 6.39759 19.3012 6.39759C20.3133 6.39759 20.8193 6.6506 21.1988 6.77711C21.7048 7.03012 22.0843 7.15663 22.4639 7.53615C22.8434 7.91566 23.0964 8.29518 23.2229 8.80121C23.3494 9.18072 23.4759 9.68675 23.6024 10.6988C23.6024 11.8374 23.6024 12.0904 23.6024 15C23.6024 17.9096 23.6024 18.1627 23.6024 19.3012C23.6024 20.3133 23.3494 20.8193 23.2229 21.1988C22.9699 21.7048 22.8434 22.0843 22.4639 22.4639C22.0843 22.8434 21.7048 23.0964 21.1988 23.2229C20.8193 23.3494 20.3133 23.4759 19.3012 23.6024C18.1627 23.6024 17.9096 23.6024 15 23.6024C12.0904 23.6024 11.8374 23.6024 10.6988 23.6024C9.68675 23.6024 9.18072 23.3494 8.80121 23.2229C8.29518 22.9699 7.91566 22.8434 7.53615 22.4639C7.15663 22.0843 6.90361 21.7048 6.77711 21.1988C6.6506 20.8193 6.5241 20.3133 6.39759 19.3012C6.39759 18.1627 6.39759 17.9096 6.39759 15C6.39759 12.0904 6.39759 11.8374 6.39759 10.6988C6.39759 9.68675 6.6506 9.18072 6.77711 8.80121C7.03012 8.29518 7.15663 7.91566 7.53615 7.53615C7.91566 7.15663 8.29518 6.90361 8.80121 6.77711C9.18072 6.6506 9.68675 6.5241 10.6988 6.39759C11.8374 6.39759 12.2169 6.39759 15 6.39759ZM15 4.5C12.0904 4.5 11.8374 4.5 10.6988 4.5C9.56024 4.5 8.80121 4.75301 8.16868 5.00602C7.53615 5.25904 6.90362 5.63856 6.27109 6.27109C5.63856 6.90362 5.38554 7.40964 5.00602 8.16868C4.75301 8.80121 4.62651 9.56024 4.5 10.6988C4.5 11.8374 4.5 12.2169 4.5 15C4.5 17.9096 4.5 18.1627 4.5 19.3012C4.5 20.4398 4.75301 21.1988 5.00602 21.8313C5.25904 22.4639 5.63856 23.0964 6.27109 23.7289C6.90362 24.3614 7.40964 24.6145 8.16868 24.994C8.80121 25.247 9.56024 25.3735 10.6988 25.5C11.8374 25.5 12.2169 25.5 15 25.5C17.7831 25.5 18.1627 25.5 19.3012 25.5C20.4398 25.5 21.1988 25.247 21.8313 24.994C22.4639 24.741 23.0964 24.3614 23.7289 23.7289C24.3614 23.0964 24.6145 22.5904 24.994 21.8313C25.247 21.1988 25.3735 20.4398 25.5 19.3012C25.5 18.1627 25.5 17.7831 25.5 15C25.5 12.2169 25.5 11.8374 25.5 10.6988C25.5 9.56024 25.247 8.80121 24.994 8.16868C24.741 7.53615 24.3614 6.90362 23.7289 6.27109C23.0964 5.63856 22.5904 5.38554 21.8313 5.00602C21.1988 4.75301 20.4398 4.62651 19.3012 4.5C18.1627 4.5 17.9096 4.5 15 4.5Z" fill="#565B68"/>
<path d="M15 9.56024C11.9639 9.56024 9.56024 11.9639 9.56024 15C9.56024 18.0361 11.9639 20.4398 15 20.4398C18.0361 20.4398 20.4398 18.0361 20.4398 15C20.4398 11.9639 18.0361 9.56024 15 9.56024ZM15 18.5422C13.1024 18.5422 11.4578 17.0241 11.4578 15C11.4578 13.1024 12.9759 11.4578 15 11.4578C16.8976 11.4578 18.5422 12.9759 18.5422 15C18.5422 16.8976 16.8976 18.5422 15 18.5422Z" fill="#565B68"/>
<path d="M20.5663 10.6988C21.2649 10.6988 21.8313 10.1324 21.8313 9.43374C21.8313 8.73506 21.2649 8.16868 20.5663 8.16868C19.8676 8.16868 19.3012 8.73506 19.3012 9.43374C19.3012 10.1324 19.8676 10.6988 20.5663 10.6988Z" fill="#565B68"/>
</svg>
