<svg width="30" height="30" viewBox="0 0 30 30" fill="none" xmlns="http://www.w3.org/2000/svg">
<path d="M22.2376 17.7928C22.7624 17.2681 22.8373 16.5185 22.3876 15.7689C22.0128 15.1692 21.3381 14.8694 20.5885 15.0193C20.2887 15.0942 19.9888 15.2442 19.689 15.469C17.3652 17.0432 14.2168 16.9683 11.893 15.3941C11.7431 15.3191 11.5932 15.2442 11.4433 15.1692C10.6187 14.7944 9.79412 14.9443 9.34436 15.6939C8.81963 16.4435 8.89458 17.2681 9.56923 17.9428C9.71915 18.0927 9.86907 18.1676 9.94403 18.3176L10.019 18.3925C11.0685 19.2171 12.3428 19.7418 13.9919 19.9667L13.0174 20.9412C12.1929 21.7658 11.2933 22.6653 10.4688 23.4899C10.2439 23.7148 9.94403 24.0896 9.94403 24.6143C9.94403 25.2889 10.3188 25.9636 10.9935 26.2634C11.2184 26.4133 11.4433 26.4133 11.6681 26.4133C12.0429 26.4133 12.4927 26.2634 12.7926 25.8886C13.917 24.7642 14.8165 23.8647 15.716 22.9651C15.791 22.8902 15.791 22.8902 15.791 22.8902C15.791 22.8902 15.866 22.8902 15.866 22.9651C16.4656 23.6398 17.1403 24.2395 17.74 24.9141C18.0398 25.214 18.3397 25.5138 18.6395 25.8137C19.0143 26.1885 19.3142 26.3384 19.7639 26.3384C20.4386 26.4134 21.1882 25.9636 21.488 25.2889C21.7879 24.6892 21.638 23.9396 21.1132 23.4899C20.3636 22.7403 19.614 21.9157 18.7894 21.1661L17.5151 19.8917C18.1898 19.8168 18.9394 19.6669 19.614 19.367C20.7384 18.9922 21.563 18.4675 22.2376 17.7928Z" fill="#979EA5"/>
<path d="M15.791 15.6939C19.0143 15.6939 21.638 13.1452 21.638 9.92191C21.638 8.34773 21.0383 6.84852 19.9138 5.72411C18.7894 4.59969 17.3652 4 15.866 4C12.6426 4 10.094 6.62363 10.019 9.77199C10.019 11.3462 10.6187 12.7704 11.7431 13.8948C12.7926 15.0942 14.2168 15.6939 15.791 15.6939ZM14.1419 8.19782C14.5916 7.74805 15.1913 7.52316 15.791 7.52316C17.1403 7.52316 18.1148 8.57262 18.1148 9.84696C18.1148 11.1963 17.0653 12.1707 15.791 12.1707C14.4417 12.1707 13.4672 11.1213 13.4672 9.84696C13.4672 9.24727 13.6921 8.64759 14.1419 8.19782Z" fill="#979EA5"/>
<path d="M22.2376 17.7928C22.7624 17.2681 22.8373 16.5185 22.3876 15.7689C22.0128 15.1692 21.3381 14.8694 20.5885 15.0193C20.2887 15.0942 19.9888 15.2442 19.689 15.469C17.3652 17.0432 14.2168 16.9683 11.893 15.3941C11.7431 15.3191 11.5932 15.2442 11.4433 15.1692C10.6187 14.7944 9.79412 14.9443 9.34436 15.6939C8.81963 16.4435 8.89458 17.2681 9.56923 17.9428C9.71915 18.0927 9.86907 18.1676 9.94403 18.3176L10.019 18.3925C11.0685 19.2171 12.3428 19.7418 13.9919 19.9667L13.0174 20.9412C12.1929 21.7658 11.2933 22.6653 10.4688 23.4899C10.2439 23.7148 9.94403 24.0896 9.94403 24.6143C9.94403 25.2889 10.3188 25.9636 10.9935 26.2634C11.2184 26.4133 11.4433 26.4133 11.6681 26.4133C12.0429 26.4133 12.4927 26.2634 12.7926 25.8886C13.917 24.7642 14.8165 23.8647 15.716 22.9651C15.791 22.8902 15.791 22.8902 15.791 22.8902C15.791 22.8902 15.866 22.8902 15.866 22.9651C16.4656 23.6398 17.1403 24.2395 17.74 24.9141C18.0398 25.214 18.3397 25.5138 18.6395 25.8137C19.0143 26.1885 19.3142 26.3384 19.7639 26.3384C20.4386 26.4134 21.1882 25.9636 21.488 25.2889C21.7879 24.6892 21.638 23.9396 21.1132 23.4899C20.3636 22.7403 19.614 21.9157 18.7894 21.1661L17.5151 19.8917C18.1898 19.8168 18.9394 19.6669 19.614 19.367C20.7384 18.9922 21.563 18.4675 22.2376 17.7928Z" fill="#979EA5"/>
</svg>
