<svg width="30" height="30" viewBox="0 0 30 30" fill="none" xmlns="http://www.w3.org/2000/svg">
<path d="M16.9825 22C9.46596 22 5.17864 16.7447 5 8H8.76515C8.88882 14.4184 11.6646 17.1371 13.8632 17.6977V8H17.4085V13.5355C19.5796 13.2973 21.8607 10.7748 22.6302 8H26.1755C25.8855 9.43908 25.3075 10.8017 24.4776 12.0025C23.6477 13.2033 22.5837 14.2166 21.3523 14.979C22.7269 15.6756 23.941 16.6615 24.9145 17.8717C25.888 19.082 26.5988 20.489 27 22H23.0974C22.7373 20.6876 22.0054 19.5128 20.9934 18.6228C19.9814 17.7328 18.7343 17.1673 17.4085 16.997V22H16.9825Z" fill="#979EA5"/>
</svg>
