<svg width="30" height="30" viewBox="0 0 30 30" fill="none" xmlns="http://www.w3.org/2000/svg">
<path fill-rule="evenodd" clip-rule="evenodd" d="M5.46817 22.7625C5.04025 22.6348 4.6498 22.4077 4.32977 22.1003C4.00974 21.793 3.76953 21.4143 3.6294 20.9964C2.82864 18.8361 2.59138 9.81562 4.13358 8.03488C4.64685 7.45559 5.37152 7.09894 6.1503 7.04234C10.2875 6.60445 23.07 6.66283 24.538 7.1883C24.9509 7.32016 25.3282 7.54228 25.6415 7.83803C25.9548 8.13379 26.196 8.4955 26.3471 8.89606C27.222 11.1293 27.2517 19.2448 26.2285 21.3905C25.9571 21.949 25.5027 22.4014 24.9384 22.6749C23.3962 23.4339 7.51455 23.4193 5.46817 22.7625ZM12.0373 18.5296L19.4517 14.7346L12.0373 10.9103V18.5296Z" fill="#565B68"/>
</svg>
