<svg width="200" height="200" viewBox="0 0 200 200" fill="none" xmlns="http://www.w3.org/2000/svg">
<path fill-rule="evenodd" clip-rule="evenodd" d="M31.4655 93.6783L100.704 24.4258L169.942 93.6783H185.914L100.704 8.45117L15.4942 93.6783H31.4655ZM31.4633 107.729H15.4919L100.704 192.958L185.916 107.729H169.945L100.704 176.984L31.4633 107.729Z" fill="#2DBB6E"/>
<path d="M86.997 119.718V112.112L98.9407 99.6052C100.405 98.0278 101.438 96.6757 102.039 95.5489C102.678 94.4221 102.997 93.2954 102.997 92.1686C102.997 89.3142 101.175 87.8869 97.5322 87.8869C96.0299 87.8869 94.49 88.1686 92.9125 88.732C91.3726 89.2954 89.8327 90.1592 88.2928 91.3235L85.0815 83.7742C86.8092 82.4221 88.8937 81.3517 91.3351 80.563C93.8139 79.7742 96.3679 79.3799 98.997 79.3799C103.579 79.3799 107.072 80.3752 109.476 82.3658C111.917 84.3564 113.138 87.2296 113.138 90.9855C113.138 93.3893 112.593 95.6991 111.504 97.9151C110.415 100.093 108.593 102.422 106.039 104.901L99.6168 111.324H114.603V119.718H86.997Z" fill="#2DBB6E"/>
</svg>
