<svg width="200" height="200" viewBox="0 0 200 200" fill="none" xmlns="http://www.w3.org/2000/svg">
<path fill-rule="evenodd" clip-rule="evenodd" d="M39.4366 131.707L39.4366 163.379H71.1088L39.4366 131.707ZM129.578 163.379H161.972V130.985L129.578 163.379ZM161.972 69.7162V38.0273L130.283 38.0273L161.972 69.7162ZM71.1269 38.0273L39.4366 38.0273L39.4366 69.7176L71.1269 38.0273Z" fill="#2DBB6E"/>
<path opacity="0.4" fill-rule="evenodd" clip-rule="evenodd" d="M29.0027 121.003L23.8654 135.57L22.5351 139.343L26.3074 140.673L48.4135 148.469L53.267 150.18L54.9906 155.029L62.6254 176.51L63.9651 180.279L67.7341 178.94L81.9036 173.903L78.7716 170.771L66.3945 175.171L59.8441 156.741L67.409 159.409L43.9717 135.971L46.69 143.619L27.6377 136.901L32.1384 124.138L29.0027 121.003ZM119.473 173.527L134.323 178.764L138.095 180.095L139.426 176.322L146.932 155.035L148.644 150.182L153.493 148.458L175.655 140.581L179.424 139.242L178.085 135.473L172.694 120.306L169.562 123.438L174.316 136.812L155.205 143.605L158.37 134.63L133.02 159.98L142.083 156.759L135.653 174.992L122.608 170.392L119.473 173.527ZM172.769 81.7694L178.454 65.6502L179.784 61.8779L176.012 60.5476L152.788 52.358L147.935 50.6464L146.211 45.7972L138.783 24.8975L137.443 21.1285L133.674 22.4681L118.767 27.7667L121.899 30.8986L135.014 26.2371L141.358 44.0856L131.669 40.6688L144.773 53.7727L144.805 53.7841L144.816 53.8165L157.988 66.9885L154.512 57.2072L174.682 64.3199L169.634 78.6338L172.769 81.7694ZM82.0766 27.4217L67.9962 22.4563L64.2239 21.126L62.8936 24.8983L55.442 46.0289L53.7304 50.8824L48.8811 52.606L25.7533 60.8263L21.9843 62.1659L23.3239 65.9349L28.6312 80.8671L31.7631 77.7351L27.0929 64.5953L47.1696 57.4595L44.517 64.9812L67.8958 41.6025L60.2912 44.3054L66.6659 26.2286L78.941 30.5573L82.0766 27.4217Z" fill="#2DBB6E"/>
<path fill-rule="evenodd" clip-rule="evenodd" d="M31.4657 93.6783L100.704 24.4258L169.943 93.6783H185.914L100.704 8.45117L15.4943 93.6783H31.4657ZM31.4635 107.729H15.4921L100.704 192.958L185.916 107.729H169.945L100.704 176.984L31.4635 107.729Z" fill="#2DBB6E"/>
<path fill-rule="evenodd" clip-rule="evenodd" d="M105.477 53.6613L152.527 100.702L105.477 147.743L105.477 158.593L163.38 100.702L105.477 42.8105L105.477 53.6613ZM95.9312 53.6615L95.9312 42.8107L38.0281 100.702L95.9312 158.593L95.9312 147.743L48.8811 100.702L95.9312 53.6615Z" fill="#2DBB6E"/>
<path d="M100.011 120.338C95.2035 120.338 91.4101 119.324 88.6307 117.295C85.889 115.267 84.5181 112.45 84.5181 108.845C84.5181 106.516 85.0814 104.525 86.2082 102.873C87.3725 101.183 88.8937 99.962 90.7716 99.2109C89.1941 98.3846 87.9359 97.1827 86.9969 95.6052C86.058 94.0278 85.5885 92.2437 85.5885 90.2531C85.5885 86.8728 86.8843 84.225 89.4758 82.3095C92.0674 80.3564 95.5791 79.3799 100.011 79.3799C104.443 79.3799 107.955 80.3564 110.546 82.3095C113.138 84.225 114.434 86.8728 114.434 90.2531C114.434 92.3188 113.964 94.1404 113.025 95.7179C112.124 97.2954 110.903 98.4785 109.363 99.2672C111.204 100.018 112.687 101.239 113.814 102.929C114.941 104.582 115.504 106.554 115.504 108.845C115.504 112.45 114.114 115.267 111.335 117.295C108.593 119.324 104.819 120.338 100.011 120.338ZM100.011 95.7179C101.588 95.7179 102.828 95.3423 103.729 94.5911C104.631 93.8024 105.081 92.7508 105.081 91.4362C105.081 90.1217 104.631 89.0888 103.729 88.3376C102.828 87.5489 101.588 87.1545 100.011 87.1545C98.4336 87.1545 97.1941 87.5489 96.2927 88.3376C95.4289 89.0888 94.9969 90.1217 94.9969 91.4362C94.9969 92.7508 95.4289 93.8024 96.2927 94.5911C97.1941 95.3423 98.4336 95.7179 100.011 95.7179ZM100.011 112.563C104.105 112.563 106.152 111.061 106.152 108.056C106.152 105.051 104.105 103.549 100.011 103.549C98.0204 103.549 96.4993 103.943 95.4476 104.732C94.396 105.483 93.8702 106.591 93.8702 108.056C93.8702 109.521 94.396 110.647 95.4476 111.436C96.4993 112.187 98.0204 112.563 100.011 112.563Z" fill="#2DBB6E"/>
</svg>
