<svg width="200" height="200" viewBox="0 0 200 200" fill="none" xmlns="http://www.w3.org/2000/svg">
<path fill-rule="evenodd" clip-rule="evenodd" d="M38.0282 130.299L38.0282 163.379H71.1088L38.0282 130.299ZM129.578 163.379H161.972V130.985L129.578 163.379ZM161.972 69.7162V38.0273L130.283 38.0273L161.972 69.7162ZM71.1269 38.0273L38.0282 38.0274L38.0282 71.126L71.1269 38.0273Z" fill="#2DBB6E"/>
<path fill-rule="evenodd" clip-rule="evenodd" d="M31.4657 93.6783L100.704 24.4258L169.943 93.6783H185.914L100.704 8.45117L15.4943 93.6783H31.4657ZM31.4635 107.729H15.4921L100.704 192.958L185.916 107.729H169.945L100.704 176.984L31.4635 107.729Z" fill="#2DBB6E"/>
<path d="M99.7293 120.338C97.1002 120.338 94.4899 119.962 91.8984 119.211C89.3444 118.423 87.3162 117.39 85.8138 116.113L88.9688 108.394C92.3115 110.685 95.8232 111.831 99.504 111.831C101.419 111.831 102.903 111.418 103.955 110.592C105.006 109.765 105.532 108.601 105.532 107.099C105.532 105.634 105.025 104.469 104.011 103.606C102.997 102.704 101.645 102.254 99.9547 102.254C97.5134 102.254 95.335 103.117 93.4195 104.845H86.9406V80H112.856V88.3944H96.6871V95.4366C98.4148 94.4977 100.405 94.0282 102.659 94.0282C105.175 94.0282 107.391 94.5728 109.307 95.662C111.222 96.7136 112.706 98.1972 113.758 100.113C114.847 102.028 115.391 104.263 115.391 106.817C115.391 109.521 114.753 111.906 113.476 113.972C112.199 116 110.396 117.577 108.067 118.704C105.739 119.793 102.959 120.338 99.7293 120.338Z" fill="#2DBB6E"/>
</svg>
