<svg width="200" height="200" viewBox="0 0 200 200" fill="none" xmlns="http://www.w3.org/2000/svg">
<path fill-rule="evenodd" clip-rule="evenodd" d="M38.0282 130.299L38.0282 163.379H71.1088L38.0282 130.299ZM129.578 163.379H161.972V130.985L129.578 163.379ZM161.972 69.7162V38.0273L130.283 38.0273L161.972 69.7162ZM71.1269 38.0273L38.0282 38.0274L38.0282 71.126L71.1269 38.0273Z" fill="#379FF2"/>
<path fill-rule="evenodd" clip-rule="evenodd" d="M31.4657 93.6783L100.704 24.4258L169.943 93.6783H185.914L100.704 8.45117L15.4943 93.6783H31.4657ZM31.4635 107.729H15.4921L100.704 192.958L185.916 107.729H169.945L100.704 176.984L31.4635 107.729Z" fill="#379FF2"/>
<path d="M101.589 120.338C96.3679 120.338 92.3303 118.591 89.4758 115.098C86.6589 111.605 85.2505 106.647 85.2505 100.225C85.2505 95.8681 85.9641 92.1311 87.3913 89.0137C88.8561 85.8963 90.9594 83.5113 93.7012 81.8588C96.443 80.2062 99.7106 79.3799 103.504 79.3799C105.682 79.3799 107.823 79.7367 109.927 80.4503C112.03 81.1264 113.889 82.1217 115.504 83.4362L112.349 91.0419C110.959 89.9902 109.495 89.2015 107.955 88.6757C106.452 88.1498 104.931 87.8869 103.391 87.8869C97.7575 87.8869 94.9406 91.3799 94.9406 98.3658V98.7602C95.7294 97.1451 96.8937 95.8869 98.4336 94.9855C100.011 94.0841 101.795 93.6334 103.786 93.6334C105.964 93.6334 107.917 94.1968 109.645 95.3235C111.41 96.4127 112.8 97.9339 113.814 99.8869C114.828 101.84 115.335 104.056 115.335 106.535C115.335 109.239 114.753 111.624 113.589 113.69C112.424 115.755 110.809 117.389 108.743 118.591C106.678 119.755 104.293 120.338 101.589 120.338ZM101.025 112.45C102.49 112.45 103.654 111.962 104.518 110.986C105.42 109.971 105.87 108.638 105.87 106.986C105.87 105.333 105.42 104 104.518 102.986C103.654 101.971 102.49 101.464 101.025 101.464C99.5979 101.464 98.4336 101.971 97.5322 102.986C96.6308 104 96.1801 105.333 96.1801 106.986C96.1801 108.638 96.6308 109.971 97.5322 110.986C98.4336 111.962 99.5979 112.45 101.025 112.45Z" fill="#379FF2"/>
</svg>
