<svg width="200" height="200" viewBox="0 0 200 200" fill="none" xmlns="http://www.w3.org/2000/svg">
<path opacity="0.4" fill-rule="evenodd" clip-rule="evenodd" d="M29.0027 121.002L23.8654 135.57L22.5351 139.343L26.3074 140.673L43 146.56L43 142.318L27.6377 136.901L32.1384 124.138L29.0027 121.002ZM56.9349 160.5L62.6254 176.51L63.9651 180.279L67.7341 178.94L81.9036 173.903L78.7717 170.771L66.3945 175.171L61.18 160.5H56.9349ZM119.473 173.527L134.323 178.764L138.095 180.095L139.426 176.322L145.182 160H140.94L135.653 174.992L122.608 170.392L119.473 173.527ZM158.5 146.679L175.655 140.581L179.424 139.242L178.085 135.473L172.694 120.306L169.562 123.438L174.316 136.812L158.5 142.434V146.679ZM172.769 81.7695L178.454 65.6502L179.784 61.8779L176.012 60.5476L158.5 54.3721V58.6135L174.682 64.3199L169.634 78.6338L172.769 81.7695ZM144.506 40.9998L138.783 24.8975L137.443 21.1285L133.674 22.4681L118.767 27.7667L121.899 30.8987L135.014 26.2371L140.261 40.9998H144.506ZM132.607 40.9998L131.669 40.6687L132 40.9998H132.607ZM82.0772 27.4219L67.9962 22.4563L64.2239 21.126L62.8936 24.8983L57.2155 40.9998L61.4569 40.9998L66.6659 26.2286L78.9417 30.5576L82.0772 27.4219ZM43 54.6963L25.7533 60.8263L21.9843 62.1659L23.3239 65.9349L28.5556 80.6545L31.6757 77.489L27.0929 64.5953L43 58.9414L43 54.6963Z" fill="#A15BC2"/>
<path fill-rule="evenodd" clip-rule="evenodd" d="M31.4657 93.6783L100.704 24.4258L169.943 93.6783H185.914L100.704 8.45117L15.4943 93.6783H31.4657ZM31.4635 107.729H15.4921L100.704 192.958L185.916 107.729H169.945L100.704 176.984L31.4635 107.729Z" fill="#A15BC2"/>
<path fill-rule="evenodd" clip-rule="evenodd" d="M105.477 53.6613L152.527 100.702L105.477 147.743L105.477 158.593L163.38 100.702L105.477 42.8105L105.477 53.6613ZM95.9313 53.6615L95.9313 42.8107L38.0282 100.702L95.9313 158.593L95.9313 147.743L48.8812 100.702L95.9313 53.6615Z" fill="#A15BC2"/>
<path d="M71.2896 119.718V111.324H80.1347V91.3235L73.4305 95.1545L69.6558 87.6616L83.177 79.9996H90.4446V111.324H98.7262V119.718H71.2896Z" fill="#A15BC2"/>
<path d="M116.901 120.338C111.981 120.338 108.225 118.554 105.634 114.986C103.042 111.38 101.746 106.291 101.746 99.7179C101.746 93.1076 103.042 88.0747 105.634 84.6193C108.225 81.1264 111.981 79.3799 116.901 79.3799C121.822 79.3799 125.577 81.1264 128.169 84.6193C130.761 88.0747 132.056 93.0888 132.056 99.6616C132.056 106.272 130.761 111.38 128.169 114.986C125.577 118.554 121.822 120.338 116.901 120.338ZM116.901 112.112C118.704 112.112 120.038 111.136 120.901 109.183C121.803 107.192 122.254 104.018 122.254 99.6616C122.254 95.3423 121.803 92.2625 120.901 90.4221C120.038 88.5442 118.704 87.6052 116.901 87.6052C115.099 87.6052 113.746 88.5442 112.845 90.4221C111.981 92.2625 111.549 95.3423 111.549 99.6616C111.549 104.018 111.981 107.192 112.845 109.183C113.746 111.136 115.099 112.112 116.901 112.112Z" fill="#A15BC2"/>
<path fill-rule="evenodd" clip-rule="evenodd" d="M39.4366 131.707L39.4366 163.379H71.1088L65.4181 157.689L46.4203 157.688L46.4203 138.691L39.4366 131.707ZM129.578 163.379H161.972V130.985L129.578 163.379ZM161.972 69.7162V38.0273L130.283 38.0273L161.972 69.7162ZM71.1269 38.0273H39.4366V69.7176L46.4203 62.7339L46.4203 43.6049L65.5501 43.6041L71.1269 38.0273ZM155.958 43.6625V63.2625L136.354 43.6617L155.958 43.6625ZM155.958 138.03V157.63L136.354 157.631L155.958 138.03Z" fill="#A15BC2"/>
</svg>
