<svg width="200" height="200" viewBox="0 0 200 200" fill="none" xmlns="http://www.w3.org/2000/svg">
<path fill-rule="evenodd" clip-rule="evenodd" d="M38.0282 130.299L38.0282 163.379H71.1088L38.0282 130.299ZM129.578 163.379H161.972V130.985L129.578 163.379ZM161.972 69.7162V38.0273L130.283 38.0273L161.972 69.7162ZM71.1269 38.0273L38.0282 38.0274L38.0282 71.126L71.1269 38.0273Z" fill="#E3505C"/>
<path fill-rule="evenodd" clip-rule="evenodd" d="M31.4657 93.6783L100.704 24.4258L169.943 93.6783H185.914L100.704 8.45117L15.4943 93.6783H31.4657ZM31.4635 107.729H15.4921L100.704 192.958L185.916 107.729H169.945L100.704 176.984L31.4635 107.729Z" fill="#E3505C"/>
<path d="M100.969 119.718V113.07H84.8561V105.803L102.603 80H110.941V105.239H116.124V113.07H110.941V119.718H100.969ZM100.969 105.239V94.5916L93.8138 105.239H100.969Z" fill="#E3505C"/>
</svg>
