<svg width="200" height="200" viewBox="0 0 200 200" fill="none" xmlns="http://www.w3.org/2000/svg">
<path fill-rule="evenodd" clip-rule="evenodd" d="M39.4366 131.707L39.4366 163.379H71.1088L39.4366 131.707ZM129.578 163.379H161.972V130.985L129.578 163.379ZM161.972 69.7162V38.0273L130.283 38.0273L161.972 69.7162ZM71.1269 38.0273L39.4366 38.0273L39.4366 69.7176L71.1269 38.0273Z" fill="#379FF2"/>
<path opacity="0.4" fill-rule="evenodd" clip-rule="evenodd" d="M29.0027 121.003L23.8654 135.57L22.5351 139.343L26.3074 140.673L48.4135 148.469L53.267 150.18L54.9906 155.029L62.6254 176.51L63.9651 180.279L67.7341 178.94L81.9036 173.903L78.7716 170.771L66.3945 175.171L59.8441 156.741L67.409 159.409L43.9717 135.971L46.69 143.619L27.6377 136.901L32.1384 124.138L29.0027 121.003ZM119.473 173.527L134.323 178.764L138.095 180.095L139.426 176.322L146.932 155.035L148.644 150.182L153.493 148.458L175.655 140.581L179.424 139.242L178.085 135.473L172.694 120.306L169.562 123.438L174.316 136.812L155.205 143.605L158.37 134.63L133.02 159.98L142.083 156.759L135.653 174.992L122.608 170.392L119.473 173.527ZM172.769 81.7694L178.454 65.6502L179.784 61.8779L176.012 60.5476L152.788 52.358L147.935 50.6464L146.211 45.7972L138.783 24.8975L137.443 21.1285L133.674 22.4681L118.767 27.7667L121.899 30.8986L135.014 26.2371L141.358 44.0856L131.669 40.6688L144.773 53.7727L144.805 53.7841L144.816 53.8165L157.988 66.9885L154.512 57.2072L174.682 64.3199L169.634 78.6338L172.769 81.7694ZM82.0766 27.4217L67.9962 22.4563L64.2239 21.126L62.8936 24.8983L55.442 46.0289L53.7304 50.8824L48.8811 52.606L25.7533 60.8263L21.9843 62.1659L23.3239 65.9349L28.6312 80.8671L31.7631 77.7351L27.0929 64.5953L47.1696 57.4595L44.517 64.9812L67.8958 41.6025L60.2912 44.3054L66.6659 26.2286L78.941 30.5573L82.0766 27.4217Z" fill="#379FF2"/>
<path fill-rule="evenodd" clip-rule="evenodd" d="M31.4657 93.6783L100.704 24.4258L169.943 93.6783H185.914L100.704 8.45117L15.4943 93.6783H31.4657ZM31.4635 107.729H15.4921L100.704 192.958L185.916 107.729H169.945L100.704 176.984L31.4635 107.729Z" fill="#379FF2"/>
<path fill-rule="evenodd" clip-rule="evenodd" d="M105.477 53.6613L152.527 100.702L105.477 147.743L105.477 158.593L163.38 100.702L105.477 42.8105L105.477 53.6613ZM95.9312 53.6615L95.9312 42.8107L38.0281 100.702L95.9312 158.593L95.9312 147.743L48.8811 100.702L95.9312 53.6615Z" fill="#379FF2"/>
<path d="M96.5181 120.338C94.3397 120.338 92.1988 120 90.0955 119.324C88.0298 118.61 86.1706 117.577 84.5181 116.225L87.7293 108.676C90.4336 110.779 93.4007 111.831 96.6307 111.831C102.302 111.831 105.138 108.338 105.138 101.352V100.901C104.311 102.554 103.11 103.831 101.532 104.732C99.9922 105.633 98.227 106.084 96.2364 106.084C94.058 106.084 92.0861 105.54 90.3209 104.45C88.5932 103.324 87.2223 101.784 86.2082 99.8306C85.1941 97.8775 84.6871 95.6616 84.6871 93.1827C84.6871 90.4785 85.2692 88.0935 86.4336 86.0278C87.6354 83.962 89.2692 82.347 91.335 81.1827C93.4007 79.9808 95.7669 79.3799 98.4336 79.3799C103.654 79.3799 107.673 81.1264 110.49 84.6193C113.344 88.1123 114.772 93.07 114.772 99.4926C114.772 103.849 114.039 107.586 112.574 110.704C111.147 113.821 109.063 116.206 106.321 117.859C103.617 119.511 100.349 120.338 96.5181 120.338ZM98.9969 98.1968C100.462 98.1968 101.626 97.7085 102.49 96.732C103.391 95.7179 103.842 94.3846 103.842 92.732C103.842 91.0794 103.391 89.7649 102.49 88.7883C101.626 87.7742 100.462 87.2672 98.9969 87.2672C97.5322 87.2672 96.3491 87.7742 95.4476 88.7883C94.5838 89.7649 94.1519 91.0794 94.1519 92.732C94.1519 94.3846 94.5838 95.7179 95.4476 96.732C96.3491 97.7085 97.5322 98.1968 98.9969 98.1968Z" fill="#379FF2"/>
</svg>
