<svg width="200" height="200" viewBox="0 0 200 200" fill="none" xmlns="http://www.w3.org/2000/svg">
<path fill-rule="evenodd" clip-rule="evenodd" d="M31.4655 93.6783L100.704 24.4258L169.942 93.6783H185.914L100.704 8.45117L15.4942 93.6783H31.4655ZM31.4633 107.729H15.4919L100.704 192.958L185.916 107.729H169.945L100.704 176.984L31.4633 107.729Z" fill="#379FF2"/>
<path d="M98.8279 120.338C96.011 120.338 93.3068 119.962 90.7152 119.211C88.1237 118.422 86.058 117.389 84.5181 116.112L87.673 108.394C90.9406 110.685 94.5275 111.831 98.4336 111.831C102.49 111.831 104.518 110.441 104.518 107.662C104.518 105.108 102.715 103.831 99.1096 103.831H92.18V95.6052H98.0955C99.7106 95.6052 100.969 95.2672 101.87 94.5911C102.809 93.9151 103.279 92.9386 103.279 91.6616C103.279 89.1451 101.532 87.8869 98.0392 87.8869C94.4711 87.8869 91.2411 89.0325 88.3491 91.3235L85.1378 83.7742C86.8279 82.3846 88.8937 81.3142 91.335 80.563C93.8138 79.7742 96.3866 79.3799 99.0533 79.3799C103.485 79.3799 106.941 80.3564 109.419 82.3095C111.898 84.225 113.138 86.8916 113.138 90.3095C113.138 92.3376 112.631 94.1217 111.617 95.6616C110.603 97.2015 109.194 98.3282 107.391 99.0419C109.607 99.6804 111.316 100.845 112.518 102.535C113.758 104.225 114.377 106.272 114.377 108.676C114.377 112.281 112.988 115.136 110.208 117.239C107.466 119.305 103.673 120.338 98.8279 120.338Z" fill="#379FF2"/>
</svg>
