<svg width="24" height="24" viewBox="0 0 24 24" fill="none" xmlns="http://www.w3.org/2000/svg">
<g id="Frame">
<path id="Vector" d="M11 5.536C11 4.13486 9.88125 3 8.5 3H5.5C4.11875 3 3 4.13486 3 5.536V8.5792C3 9.98034 4.11875 11.1152 5.5 11.1152H8.5C9.88125 11.1152 11 9.98034 11 8.5792V5.536ZM11 15.4208C11 14.0197 9.88125 12.8848 8.5 12.8848H5.5C4.11875 12.8848 3 14.0197 3 15.4208V18.464C3 19.8651 4.11875 21 5.5 21H8.5C9.88125 21 11 19.8651 11 18.464V15.4208ZM21 15.4208C21 14.0197 19.8813 12.8848 18.5 12.8848H15.5C14.1187 12.8848 13 14.0197 13 15.4208V18.464C13 19.8651 14.1187 21 15.5 21H18.5C19.8813 21 21 19.8651 21 18.464V15.4208Z" fill="#F1F1F1"/>
<path id="Vector_2" opacity="0.4" d="M13 8.5792V5.536C13 4.13486 14.1187 3 15.5 3H18.5C19.8812 3 21 4.13486 21 5.536V8.5792C21 9.98034 19.8812 11.1152 18.5 11.1152H15.5C14.1187 11.1152 13 9.98034 13 8.5792Z" fill="#F1F1F1"/>
</g>
</svg>
