<svg width="36" height="36" viewBox="0 0 36 36" fill="none" xmlns="http://www.w3.org/2000/svg">
<rect width="36" height="36" rx="4" fill="#2A3252"/>
<path d="M17 11.536C17 10.1349 15.8812 9 14.5 9H11.5C10.1187 9 9 10.1349 9 11.536V14.5792C9 15.9803 10.1187 17.1152 11.5 17.1152H14.5C15.8812 17.1152 17 15.9803 17 14.5792V11.536ZM17 21.4208C17 20.0197 15.8812 18.8848 14.5 18.8848H11.5C10.1187 18.8848 9 20.0197 9 21.4208V24.464C9 25.8651 10.1187 27 11.5 27H14.5C15.8812 27 17 25.8651 17 24.464V21.4208ZM27 21.4208C27 20.0197 25.8813 18.8848 24.5 18.8848H21.5C20.1187 18.8848 19 20.0197 19 21.4208V24.464C19 25.8651 20.1187 27 21.5 27H24.5C25.8813 27 27 25.8651 27 24.464V21.4208Z" fill="#E3505C"/>
<path opacity="0.4" d="M19 14.5792V11.536C19 10.1349 20.1187 9 21.5 9H24.5C25.8812 9 27 10.1349 27 11.536V14.5792C27 15.9803 25.8812 17.1152 24.5 17.1152H21.5C20.1187 17.1152 19 15.9803 19 14.5792Z" fill="#E3505C"/>
</svg>
