<svg width="40" height="40" viewBox="0 0 40 40" fill="none" xmlns="http://www.w3.org/2000/svg">
<rect width="40" height="40" rx="8" fill="#F5E0E0"/>
<path d="M19 13.536C19 12.1349 17.8812 11 16.5 11H13.5C12.1187 11 11 12.1349 11 13.536V16.5792C11 17.9803 12.1187 19.1152 13.5 19.1152H16.5C17.8812 19.1152 19 17.9803 19 16.5792V13.536ZM19 23.4208C19 22.0197 17.8812 20.8848 16.5 20.8848H13.5C12.1187 20.8848 11 22.0197 11 23.4208V26.464C11 27.8651 12.1187 29 13.5 29H16.5C17.8812 29 19 27.8651 19 26.464V23.4208ZM29 23.4208C29 22.0197 27.8813 20.8848 26.5 20.8848H23.5C22.1187 20.8848 21 22.0197 21 23.4208V26.464C21 27.8651 22.1187 29 23.5 29H26.5C27.8813 29 29 27.8651 29 26.464V23.4208Z" fill="#E3505C"/>
<path opacity="0.4" d="M21 16.5792V13.536C21 12.1349 22.1187 11 23.5 11H26.5C27.8812 11 29 12.1349 29 13.536V16.5792C29 17.9803 27.8812 19.1152 26.5 19.1152H23.5C22.1187 19.1152 21 17.9803 21 16.5792Z" fill="#E3505C"/>
</svg>
