<svg width="26" height="26" viewBox="0 0 26 26" fill="none" xmlns="http://www.w3.org/2000/svg">
<path d="M12 6.536C12 5.13486 10.8812 4 9.5 4H6.5C5.11875 4 4 5.13486 4 6.536V9.5792C4 10.9803 5.11875 12.1152 6.5 12.1152H9.5C10.8812 12.1152 12 10.9803 12 9.5792V6.536ZM12 16.4208C12 15.0197 10.8812 13.8848 9.5 13.8848H6.5C5.11875 13.8848 4 15.0197 4 16.4208V19.464C4 20.8651 5.11875 22 6.5 22H9.5C10.8812 22 12 20.8651 12 19.464V16.4208ZM22 16.4208C22 15.0197 20.8813 13.8848 19.5 13.8848H16.5C15.1187 13.8848 14 15.0197 14 16.4208V19.464C14 20.8651 15.1187 22 16.5 22H19.5C20.8813 22 22 20.8651 22 19.464V16.4208Z" fill="#E3505C"/>
<path opacity="0.4" d="M14 9.5792V6.536C14 5.13486 15.1187 4 16.5 4H19.5C20.8812 4 22 5.13486 22 6.536V9.5792C22 10.9803 20.8812 12.1152 19.5 12.1152H16.5C15.1187 12.1152 14 10.9803 14 9.5792Z" fill="#E3505C"/>
</svg>
